<svg xmlns="http://www.w3.org/2000/svg" version="1.1" xmlns:xlink="http://www.w3.org/1999/xlink" xmlns:svgjs="http://svgjs.dev/svgjs" viewBox="0 0 800 800" opacity="0.4"><defs><linearGradient x1="50%" y1="0%" x2="50%" y2="100%" id="ssscribble-grad"><stop stop-color="hsl(206, 75%, 49%)" stop-opacity="1" offset="0%"></stop><stop stop-color="hsl(331, 90%, 56%)" stop-opacity="1" offset="100%"></stop></linearGradient></defs><g fill="none" stroke-width="1" stroke="url(#ssscribble-grad)" stroke-linecap="round"><path d="M1429 376.27C1458.32 409.13 1372.08 434.14 1262.27 452.05 1240.17 470.78 1321.97 484.63 1418.13 497.19 1430.92 516.32 1342.17 542.37 1231.25 582.09 1191.16 636.7 1246.33 708.12 1335.42 791.62 1375.87 869.92 1324.48 932.15 1216.7 960.11 1114.01 928.63 1243.69 869.49 1230.28 988.8 1143.25 1096.84 1041.81 1162.42 969.13 1147.41 947.8 1076.52 973.35 1016.05 1018.94 1037.9 1059.13 1145.35 1066.52 1261.99 1035.47 1290.51 971.76 1216.52 891.05 1128.97 811 1142.7 740.95 1263.66 691.22 1370.96 660.99 1347.89 646.88 1213.22 648.74 1411.18 639.07 1282.18 628.11 1230.03 609.87 1336.65 585.66 1453.05 560.4 1407.32 530.96 1271.31 498.1 1261.14 465.24 1396.28 429.74 1459.27 390.98 1352.02 351.19 1237.2 306.36 1282.03 255.35 1408.49 202.24 1425.14 142.99 1299.68 79.61 1199.58 19.77 1247.92 -35.97 1363.11 -80.12 1381.67 -106.84 1269.61 -112.64 1152 -96.55 1150.07 -70.45 1246.99 -42.12 1313.88 -29.05 1266.83 -48.65 1141.29 -104.96 1046.98 -192.16 1050.48 -284.77 1128.43 -355.45 1191.5 -377.18 1175.98 -347.57 1083.08 -287.15 969.43 -238.92 896.66 -246.5 891.25 -318.72 936.02 -426.47 987.16 -509.33 1011.56 -520.54 986.01 -457.48 919.82 -379.01 829.75 -354.4 742.79 -418.93 675.22 -570.4 621.11 -458.23 613.64 -447.18 614.21 -556.02 610.84 -647.49 598.13 -631.89 577.26 -528.58 554.92 -445.67 526.78 -474.99 493.92 -587.83 461.06 -659.92 424.26 -615.47 382.59 -500.3 339.46 -428.75 289.1 -465.07 230.5 -567.31 170.35 -627.71 104.69 -585.27 39.27 -429.51 -33.86 -499.91 -39.57 -545.37 12.25 -470.68 24.5 -360.91 -2.31 -283.47 -77.35 -303.74 -225.97 -406.91 -254.44 -308 -170.34 -208.55 -197.87 -131.05 -301.94 -95.94 -418.71 -105.09 -461.03 -140.32 -403.33 -176.92 -311.99 -199.4 -299.14 -191.58 -397.85 -154.54 -524.09 -93.93 -551.5 -21.43 -460.69 51.29 -372.69 120.55 -415.31 177.78 -551.89 222.76 -618.8 257.7 -537.27 284.26 -427.49 306.76 -456.79 324.87 -595.92 343.98 -650.46 366.55 -542.16 388.36 -441.39 415.36 -507.66 448.22 -642.82 481.08 -632.7 519.03 -493.36 561.22 -441.09 602.66 -550.96 646.62 -647.94 690.48 -583.14 729.95 -445.24 764.27 -421.94 788.94 -529.9 804.15 -575.93 768.14 -399.55 753 -531.46 769.92 -515.91 814.49 -396.53 887.6 -288.31 974.85 -282.58 1058.99 -362.63 1115.16 -431.29 1127.07 -414.36 1094.7 -312.89 1038.31 -198.92 999.13 -140.82 1006.83 -161.26 1074.81 -222.28 1177.66 -272.95 1267.45 -267.33 1295.34 -204.36 1252.11 -106.28 1174.19 -11.88 1128.81 52.56 1165.25 78.56 1268.7 71.87 1369.44 50.52 1359.63 17.44 1247.27 53.21 1400.23 113.47 1449.24 162.87 1387.36 212.1 1278.69 257.37 1240.74 303.47 1316.16 343.4 1429 376.27Q1429 376.27 1429 376.27" opacity="0.55"></path><path d="M1361 389.69C1392.49 420.2 1320.8 457.49 1213.34 501.15 1165.6 544.63 1215.13 593.62 1311.5 645.8 1369.16 693.92 1333.89 738.81 1232.69 773.86 1131.23 796.25 1280.99 743.1 1263.96 717.45 1170.43 737.78 1073.25 795.27 1022.1 884.76 1064.19 1012.6 1157.45 990.42 1067.11 919.03 974.6 949.47 896.3 1045.9 851.48 1157.36 897.95 1128.89 870.92 1286.89 782.84 1170.04 715.86 1114.88 652.78 1182.55 597.09 1311.83 546.79 1360.74 504.98 1277.37 469.6 1170.13 438.39 1184.98 410.11 1311.36 382.45 1390.41 355.89 1319.96 327.77 1196.25 297.25 1193.14 266.74 1318.13 234.56 1393.44 201.69 1315.85 169.91 1189.19 139.63 1177.46 113.29 1286.03 83.77 1341.58 76.12 1159.95 94.66 1295.06 103.44 1307.88 104.72 1207.9 89.59 1091.03 52.02 1059.92 -8.27 1127.45 -86.69 1211.49 -167.18 1226.04 -235.49 1146.44 -273.11 1030.94 -253.75 957.23 -151.73 1089.38 -214.02 1042.76 -307.58 947.15 -398.59 850.8 -443.94 787.01 -352.01 820.74 -530.12 789.5 -455.81 699.78 -371.83 632.99 -351.13 571.65 -420.57 518.37 -528.71 468.67 -587.23 426.62 -545.52 390.13 -444.1 355.22 -375.5 323.05 -406.99 292.54 -511.51 262.03 -587.98 233.89 -566.07 209.36 -420.19 178.16 -487.49 160.19 -554.14 174.02 -489.49 180.74 -382.82 181.84 -308.25 166.9 -311.02 128.29 -377.31 64.52 -449.84 -19.91 -474.66 -104.81 -427.26 -172.94 -333.01 -201.48 -213.98 -159.27 -275.7 -99.81 -329.3 -230.23 -310.61 -330.6 -248.69 -373.29 -164.55 -333.34 -79.62 -253.86 -16.6 -208.23 16.13 -254.52 18.64 -370.33 1.18 -467.45 -22.52 -463.57 -50.98 -336.37 -10.97 -501.38 50.21 -504.12 100.99 -391.69 152.97 -351.15 202.69 -446 253.16 -566.35 298.96 -563.65 339.56 -443.04 379.86 -371.45 415.28 -449.81 445.79 -574.82 476.3 -571.76 501.19 -444.97 520.32 -368.44 545.54 -500.13 569.1 -393.96 575.95 -376.64 587.64 -488.7 606.8 -536.53 638.7 -459.02 685.07 -332.75 746.62 -281.96 820.19 -340.88 894 -436 960.1 -458.63 1004.62 -380.2 1010.11 -224.76 909.55 -311.48 920.85 -331.12 986.77 -252.13 1080.19 -145.47 1167.18 -63.05 1203.3 -45.61 1061.63 -150.6 1104.76 -125.27 1204.5 -62.98 1295.66 15.49 1320.8 92.89 1268.59 162.41 1181.79 213.66 1134.36 248.12 1225.51 274.25 1328.14 299.66 1192.79 320.39 1176.92 336.16 1256.48 359.18 1361 389.69Q1361 389.69 1361 389.69" opacity="0.33"></path><path d="M1293 443.33C1325.99 471.5 1268.59 493.18 1167.93 508.25 1108.99 526.93 1287.22 536.99 1239.17 542.37 1140.46 557.89 1062.48 586.22 1047.93 632.71 1098.46 694.66 1172.75 769.97 1219.51 847.99 1208.61 910.19 1140.28 945.14 1047.4 941.61 952.61 882.1 1026.48 861.49 1078.33 991.65 1067.43 1082.5 1018.04 1122.99 944.96 1091.84 864.11 1019.36 795.17 962.13 748.42 976.77 727.16 1122.94 771.4 1135.58 788.82 1041.03 788.97 1098.63 776.41 1217.88 753.56 1290 722.97 1248.06 686.82 1140.05 648.59 1088.51 607.61 1159.48 568.02 1280.94 531.52 1318.53 494.61 1231.19 461.78 1122.03 433.61 1125.14 405.45 1239.65 382.61 1323.43 364.66 1276.63 346.3 1153.93 331.83 1094.15 319.69 1157.23 304.79 1266.9 288.77 1295.24 268.25 1209.23 240 1092.38 202.54 1055 153.58 1120.03 96.27 1215.23 30.81 1239.87 -37.12 1166.82 -119.43 1016.34 -147.18 1106.04 -93.13 1137.26 -60.35 1064.61 -49.63 960.27 -75.65 878.49 -138.84 852.16 -225.15 881.31 -307.81 935.01 -356.51 981.34 -354.77 988.57 -305.86 951.94 -242.31 880.68 -201.27 796.61 -215.5 720.61 -287.39 662.91 -384.63 631.51 -455.8 621.51 -363.05 649.43 -504.85 629.21 -455.63 593.61 -360.55 566.98 -306 538.99 -338.99 510.82 -435.02 482.65 -513.49 454.99 -512.04 426.75 -432.45 397.02 -334.36 363.91 -288.42 324.82 -323.93 281.18 -407.86 228.95 -474.95 168.06 -476.75 106.01 -407.22 42.6 -309.07 -13.71 -233.49 -60.64 -370.55 -7.97 -382.56 39.47 -319.38 32.7 -229.14 -16.43 -147.99 -103.05 -102.23 -230.98 -202.13 -196.06 -227.87 -122.06 -202.94 -154.15 -148.78 -250.24 -78.66 -356.15 -3.28 -401.33 62.78 -358.48 112.76 -268.21 152.91 -244.05 155.9 -459.86 148.75 -349.41 147.52 -300.15 182.55 -489.81 214.8 -346.96 238.55 -305.69 264.86 -392.28 293.02 -506.82 321.19 -509.97 350.55 -397.98 381.66 -305.04 413.64 -337.02 448.98 -450.18 488.97 -510.31 531.43 -447.93 579.83 -326.47 634.06 -268.61 688.88 -324.81 745.75 -425.73 800.06 -462.7 860.76 -336.04 876.35 -273.28 833.79 -376.48 807.08 -361.81 794.85 -273.22 810.22 -167.48 858.19 -103.06 933.01 -108.39 1018.5 -162.33 1088.76 -224.52 1123.74 -247.94 1111.33 -216.93 1063.44 -140.76 1004.56 -48.69 970.71 29.15 989.94 76.09 1061.45 86.04 1157.46 70.08 1238.13 24.47 1091.57 10.64 1083.67 57.07 1166.65 103.55 1264.03 154.21 1310.42 203.84 1275.34 255.09 1185.54 301.26 1111.52 341.39 1115.65 381.18 1196.97 415.17 1293 443.33Q1293 443.33 1293 443.33" opacity="0.70"></path><path d="M1225 327.68C1258.82 353.5 1215.08 383.71 1124.88 418.58 1047.43 454.12 1030.73 495.3 1080.4 542.28 1162.73 589.62 1221.42 641.01 1219.48 693.23 1156.66 738.96 1065.73 776.96 993.09 800.56 971.47 807.36 1004.59 795.15 1067.14 766.43 1125.17 735.47 1144.21 710.55 1113.7 707.74 1043.57 738.69 959.32 803.05 888.97 889.56 851.23 996.3 942.84 946.77 977.41 873.42 967.83 890.47 931.35 967.32 876.17 1070.06 809.54 1140.47 743.27 1138.97 685.07 1069.5 637.26 991.41 603.56 969.47 581.91 1033.7 568.77 1179.23 564.23 1064 557.47 1042.08 545.69 1192.09 496.14 1095.25 459.63 1057.14 433.82 1160.95 404.16 1249.31 370.65 1232.01 336.79 1126.74 298.55 1035.73 255.98 1041.8 213.23 1133.75 167.03 1217.93 119.2 1214.06 74.78 1122.53 33.49 1017.84 -0.38 979.94 -14.04 1081.01 54.16 906.15 25.83 978.99 -27.19 1040.47 -99.62 1056.7 -177.42 1016.67 -240.2 934.79 -272.86 844.54 -265.4 776.88 -197.78 752.83 -145.19 846.15 -248.29 863.87 -333.86 843.6 -388.02 801.16 -385.33 745.89 -331.61 682.23 -257.5 620.68 -209.25 566.09 -221.88 516.65 -292.9 476.53 -385.19 443.77 -444.83 415.61 -435.72 391.11 -363.38 367.72 -278.29 345.55 -237.17 322.03 -270.99 296.21 -358.41 270.39 -436.61 242.89 -452.65 214.76 -396.82 187.87 -304.45 162.81 -233.06 142.28 -223.82 126.34 -276.76 118.63 -353.92 121.22 -408.17 128.96 -403.38 144.65 -341.11 163.57 -251.3 174.1 -176.65 172.91 -147.54 150.8 -171.18 104.45 -227.46 35.8 -283.57 -45.41 -312.83 -118.33 -297.08 -166.83 -241.24 -174.7 -161.87 -144 -83.93 -89.2 -27.34 -41.15 -2.21 -34.95 -8.36 -83.39 -34.95 -175.35 -86.79 -293.06 -95.49 -191.64 -38.76 -149.9 16.34 -221.19 75.43 -329.17 132.61 -398.47 187.44 -379.52 234.64 -291.65 274.08 -214.68 307.85 -225.35 335.64 -321.84 359.71 -423.76 380.74 -439.84 401.01 -356.44 422.19 -256.27 442.65 -244.03 465.5 -334.99 491.32 -438.82 517.14 -447.29 545.32 -351.62 575.14 -250.53 604.25 -243.14 633.54 -331.33 661.2 -423.49 695.84 -385.48 725.67 -226.5 714.91 -344.7 702.47 -390.01 687.02 -347.05 674.31 -245.93 673.56 -153.43 687.53 -126.9 721.45 -170.42 774.47 -246.27 842.78 -294.38 916.63 -280.95 980.16 -209.03 1021.76 -112.97 1030.47 -35.18 1007.72 -2.07 962.01 -17.82 913.14 -62.01 887.78 -111.57 900.78 -137.51 956.92 -128.66 1039.92 -86.07 1121.21 -19.99 1167.89 53.35 1161.81 124.47 1108.2 180.32 1037.31 218.26 993.97 239.41 1005.99 247.26 1074.81 248.37 1199.18 241.22 1128.73 246.69 1035.61 265.63 1056.76 281.04 1137.58 301.86 1225 327.68Q1225 327.68 1225 327.68" opacity="0.62"></path><path d="M1157.01 494.42C1190.96 517.89 1159.88 538.08 1082.81 554.43 1027.94 580.09 1118.09 564.02 1008.31 560.86 935.07 574.02 897.63 602.41 904.8 649.34 949.09 710.26 1005.76 780.96 1048.96 849.98 1062.14 901.29 1036.6 925.28 980.15 914.49 906.77 877.13 835.93 826.64 782.57 787.54 754.48 785.47 752.83 828.86 770.6 910.16 816.51 1028.39 858.06 976.48 830.87 892.79 794.77 909.75 750.01 988.55 701.57 1087.33 650.11 1145.01 601.15 1125.92 556.59 1044.88 514.25 967.19 477.18 954.47 444.72 1024.46 414.37 1127.48 387.1 1184.66 361.84 1149.15 337.21 1052.55 313.37 976.33 289.9 989.17 266.43 1082.18 243.88 1171.37 222.78 1180.06 193.44 1050.95 155.62 1043.32 152.17 1152.22 154.14 1140.2 161.41 1057.43 172.19 959.79 179.96 907.29 185.05 927.05 182.61 995.76 167.31 1065.79 137.81 1087.08 92.4 1045.4 35.1 959.55 -30.14 870.82 -94.48 816.26 -145.83 812.66 -176.4 851.52 -179.08 905.76 -156.48 950.1 -114.94 959.85 -69.28 930.76 -40.54 869.83 -41.14 794.33 -78.76 722.67 -146.4 665.6 -225.81 632.5 -291.04 621.59 -319.15 629.88 -300.83 647.68 -244.79 666.38 -180.69 684.87 -139.04 694.34 -145.03 693.65 -201.44 686.04 -284.83 669.69 -356.35 647.53 -380.97 621.45 -346.08 593.36 -270.15 565.58 -197.72 536.9 -169.02 510.4 -202.97 486.92 -281.71 463.45 -357.55 443.57 -387.46 426.53 -356 408.59 -279.38 391.63 -198.16 373.44 -152.32 351.33 -161.49 324.2 -215.59 289.23 -286.03 247.33 -333.82 196.18 -335.3 137.01 -288.69 77.63 -211.7 20.16 -134.1 -26.66 -81.95 -54.29 -70.3 -58.6 -95.79 -37.7 -169.75 18.05 -204.35 40.19 -128.84 -55.89 -58.19 -140.89 9.03 -209.05 61.78 -233.16 55.36 -220.11 56.65 -179.14 98.32 -146.62 132.81 -223.58 169.03 -325.15 204.71 -377.08 241.72 -341.18 276.27 -246.64 307.45 -172.9 338.77 -186.23 366.34 -277.8 389.81 -370.81 413.28 -383.65 432.11 -305.06 446.5 -203.81 466.29 -188.79 491.02 -356.86 502.74 -253.96 515.65 -159.67 533.35 -125.3 558.7 -165.78 592.71 -247.35 636.52 -307.03 689.81 -303.05 747.24 -234.86 806.73 -139.25 861.43 -65.34 902.83 -44.8 926.26 -78.84 926.86 -139.26 907.69 -192.85 872.7 -206.95 832.81 -174.11 805.27 -104.25 800.15 -21.52 826.56 49.41 882.93 93.78 957.99 104.73 1031.93 89.59 1081.86 56.75 1092.95 23.47 1061.73 1.08 1005.08 -7.29 947.22 3.97 917.8 31.48 936.49 72.19 999.56 120.14 1083.25 169.62 1150.59 221.23 1170.98 268.6 1134.19 310.4 1062.03 350.51 992.32 385.22 965.5 415.38 1000.06 444.75 1078.27 470.95 1157.01 494.42Q1157.01 494.42 1157.01 494.42" opacity="0.30"></path><path d="M1089.02 292.31C1122.44 313.43 1102.78 335.61 1040.46 359.34 963.84 383.85 906.13 411.37 890.08 443.1 920.56 477.14 980.6 516.76 1042.5 562.16 1081.52 608.78 1079.37 658.53 1036.87 707.83 968.03 749.95 895.53 782.89 840.98 800.89 818 802.29 829.07 785.85 864.89 754.62 933.43 706.32 954.36 722.22 887.52 817.23 824.96 893.52 762.73 955.55 709.61 982.69 670.07 967.46 647.52 917.02 640.11 855.03 646.26 816.25 659.88 822.7 675.69 880.39 699.23 1005.69 708.14 1006 691.37 898.7 673.77 880.12 652.12 928.79 628.27 1020.03 602.48 1097.95 576.49 1113.13 551.51 1054.53 526.1 964.36 502.59 904.96 481.47 921.15 460.34 1003.29 442.11 1089.87 426.37 1119.5 410.2 1072.66 395.64 980.62 381.59 903.9 365.6 889.38 348.12 941.42 327.39 1021.6 302.36 1079.35 271.79 1075.9 234.49 1012.96 192.37 922.83 144.32 851.34 92.26 829.35 41.77 861.74 -5.52 924.44 -44.23 981.67 -69.37 1006.05 -78.27 982.41 -68.95 920.16 -46.06 839.54 -12.83 767.92 22.03 724.1 45.44 715.43 50.55 737.13 30.24 774.74 -15.52 816.19 -80 843.88 -150.05 850.14 -207.87 834.11 -239.41 797.38 -235.28 747.6 -199.57 689.32 -144.28 631.91 -90.93 580.56 -63.91 535.16 -75.52 499.59 -126.46 472.53 -235.34 444.56 -275.4 408.26 -177.21 389.11 -119.07 376.05 -101.55 359.23 -134.97 338.11 -205.03 316.98 -276.59 292.06 -316.33 263.97 -307.46 236.44 -253.04 206.96 -177.21 177.26 -110.88 150.42 -79.59 126.54 -92.06 108.55 -140.98 97.28 -202.35 95.32 -250.19 104.11 -266.89 118.85 -243.62 140.56 -188.2 164.16 -116.5 179.26 -49.42 182.32 -3.47 165.8 12.6 126.99 -0.53 67.87 -33.44 -3.8 -93.99 -97 -117.78 -102.64 -63.59 -24.34 -8.85 12.96 49.78 13.1 105.19 -33.25 154.3 -112.47 192.19 -195.66 218.63 -246.9 234.27 -243.77 241.25 -189.5 242.91 -114.87 239.2 -67.39 235.06 -77.67 232.8 -147.33 230.53 -270.51 248.14 -183.77 267.78 -98.17 282.51 -131.94 300.52 -220.66 321.65 -302.82 342.77 -319.04 366.5 -257.53 392.92 -163.18 419.68 -100.37 449.71 -109.3 483.29 -179.06 517.6 -262.15 555.6 -300.76 596.77 -270.28 637.35 -187.95 679.01 -100.42 719.33 -53.59 754.29 -67.87 783.01 -128.13 802.06 -195.84 810.31 -234.71 806.1 -220.7 789.55 -159.94 766.7 -75.95 739.51 -1.98 714.98 38.19 703.12 36.01 707.91 0.36 734.23 -48.24 781.16 -91.83 843.53 -110.29 911.02 -97.73 968.88 -56.54 1005.55 3.89 1011.48 70.25 987.53 134.04 940.93 184.16 888.08 217.46 851.49 234.15 845.43 236.92 877.6 231.41 940.91 218.72 1016.04 206.49 1076.88 198.2 1101.29 191.12 1080.11 190.63 1021.94 196.42 954.26 204.53 906.04 217.56 901.33 234.19 945.23 251.6 1018.93 271.17 1089 292.3Q1089.02 292.31 1089.02 292.31" opacity="0.67"></path><path d="M1021.02 510.77C1053.24 529.55 1043.44 548.3 996.4 566.46 929.47 583.95 865.94 599.58 826.61 611.99 823.25 622.08 854.03 627.08 905.81 625.82 981.71 616.19 966.85 574.68 879.94 560.29 816.8 564.51 767.56 582.37 740.54 616.88 738.74 665.66 758.27 725.75 790.7 789.27 844.83 862.2 874.62 853.86 836.22 783.68 793.33 744.54 743.97 730.84 693.57 753.96 644.29 811.34 601.14 887.77 565.67 958.23 537.45 996.84 517.07 989.79 502.88 940.01 486.71 869.29 466.25 1036.64 450.86 956.08 439.44 877.89 424.4 834.6 405.62 853.15 386.85 924.53 364.77 1005.43 339.61 1049.7 314.47 1033.95 286.35 966.16 255.69 882.88 225.53 825.64 193.7 820.94 161.39 866.18 131.48 937.2 103.43 995.29 79.38 1012.24 61.03 980.1 49.68 911.1 47.07 832.99 51.7 772.96 64.92 750.61 85.26 767.56 117.42 840.57 142.79 908.64 110.07 850.86 66.85 786.33 11.49 720.15 -48.84 664.57 -72.69 664.2 -40.66 696.89 -133.26 668.79 -195.64 642.71 -235.38 613.92 -239.27 584.79 -207.19 553.94 -149.19 524.93 -85.97 498.87 -42.64 472.55 -34.75 449.79 -66.97 431.01 -128.39 412.23 -194.06 397.88 -239.45 387.62 -249.45 377.11 -219.53 370.07 -160.84 365.51 -64.75 356.23 -33.72 322.61 -102.16 285.99 -152.44 250.86 -184.58 206.54 -189.31 154.28 -165.38 100.38 -117.51 47.15 -56.99 1.69 4.86 -28.36 55.73 -39.13 88.34 -27.5 99.63 1.19 91.42 41.59 69.63 81.51 38.82 104.41 8.82 101.54 -14.02 66.7 -27.69 5.47 -27.55 -68.64 -14.19 -134.6 10.75 -171.11 44.92 -166.97 84.54 -123.7 128.52 -62.35 172.4 -8.64 213.9 9.74 254.05 -20.94 289.8 -91.25 321.1 -172.87 349.82 -228.72 374.81 -233.01 397 -183.03 417.64 -107 436.82 -44.72 455.36 -32.66 473.48 -80.62 491.78 -163.42 510.56 -234.82 529.34 -253.4 548.15 -208.23 566.61 -126.33 584.64 -52.64 601.5 -25.89 616.28 -56.74 611.8 -79.81 623.59 -134.49 678.03 -55.89 727.74 16.43 783.52 79.93 838.94 121.61 885.35 135.95 917.01 124.81 927.9 97.22 917.46 60.56 887.51 28.43 845.2 8.58 804.23 3.01 774.56 15.07 767.36 41.67 788.83 80.21 836.27 125.29 900.31 171.95 964.61 219.95 1012.64 263.82 1030.12 302.26 1012.89 337.59 965.96 367.38 905.07 392.71 853.61 415.71 829.21 436.13 842.9 455.2 892 473.62 959.56 491.98 1021 510.76Q1021.02 510.77 1021.02 510.77" opacity="0.07"></path><path d="M953 296.56C982.32 329.43 895.82 356.93 784.96 384.97 753.46 420.71 818.93 470.84 906.6 543.7 937.46 626.81 877.29 714.98 771.23 776.24 666.06 758.96 750.16 684.06 774.6 849.73 744.82 922.8 687.19 873.84 620.35 763.23 547.94 746.81 484.54 864.01 432.98 974.04 384.21 928.1 344.19 795.3 311.33 785.14 278.46 920.28 254.32 981.93 241.12 877.75 230.71 757.01 234.33 778.41 249.79 889.65 259.68 937.05 263.2 849.83 242.34 722.72 187.14 668.58 100.17 715.06 2.56 789.7 -65.01 824.35 -74.27 780.66 -18.17 690.42 53.67 588.35 84.37 514.51 29.42 474.34 -124.42 460.97 -9.59 443.98 1 402.77 -111.83 369.91 -182.01 322.45 -138.73 263.11 -24.83 206.6 56.84 147.92 46.52 103.79 -34.88 87 -103.81 106.71 -102.24 158.13 -28.49 197.73 75.73 194.26 158.44 116.56 194.25 -1.13 183.92 -86.6 153.33 -66.69 108.46 55.07 152.53 -142.89 215.04 -54.93 261.91 36.59 303.7 -31.66 336.56 -166.82 369.42 -156.7 391.8 -17.25 406.9 41.4 425.95 -55.92 446.55 -154.44 478.72 -113.96 527.83 20.72 598.2 99.18 685.6 60.35 766.84 -34.3 824.34 -68.97 831.6 -10.21 791.96 103.94 726.69 200.95 687.16 243.98 719.8 233.38 818.2 199.32 923.71 173.16 958.11 157.24 895.13 166.89 793.92 193.11 763.31 227.04 840.16 263.7 953 296.56Q953 296.56 953 296.56" opacity="0.55"></path><path d="M885 486.3C917.99 514.47 860.23 549.64 759.98 587.06 689.81 630.85 844.53 618.35 834.83 560.7 759.68 544.01 669.59 567.3 597.65 643.93 557.39 786.33 613.92 725.69 632.96 669.19 632.07 756.03 616.91 873.25 593.1 904.79 565.66 820.24 536.25 714.03 508.09 717.14 479.92 831.66 454.33 913.69 428.65 868.98 399.33 747.73 363.25 675.52 315.33 711.01 258.71 808.04 189.86 861.48 116.5 823.76 56.11 720.78 18.95 622.23 20.66 577.73 84.02 620.5 125.93 701.14 -0.45 652.37 -81.77 594.54 -99.65 535.01 -39.43 483.56 49.94 432.04 101.99 391.84 69 363.67 -65.26 328.1 24.32 321.57 133.15 334.73 124.19 326.71 65.74 296.32 3.28 231.93 -29.91 145.81 -10.01 55.51 51.13 0.74 134.42 8.31 212.56 73.45 270.07 147.11 311.24 116.18 313.45 -68.9 318.83 69.55 325.37 103.42 342.57 15.71 370.73 -98.82 398.9 -101.97 436.71 9.92 483.28 105.37 529.82 84.72 583.47 -16.45 638.59 -82.66 684.35 -47.68 717.4 61.86 726.3 157.32 693.36 155.73 610.64 35.79 679.92 104.46 771.71 188.96 855.42 268.48 885.03 329.13 846.33 373.76 763.37 401.55 697.62 422.61 706.78 438.3 788.97 458.13 885 486.3Q885 486.3 885 486.3" opacity="0.57"></path><path d="M817.02 338.92C850.97 362.4 819.41 376.44 743.13 383.64 661.64 393.86 613.36 404 614.11 422.2 658.71 454.4 718.08 504.94 763.1 574.66 779.5 648.29 757.41 715.28 707.06 751.39 639.56 743.44 571.94 692.65 515.25 624.34 470.81 587.22 441.97 609.11 423.87 692.34 411.04 814.63 381.19 673.24 350.11 649.15 326.64 742.14 296.03 829.44 260.28 838.25 226.14 763.79 190.62 662.29 159.18 603.64 136.6 619.11 126.79 685.85 135.06 751.63 155.57 779.65 189.49 749.61 226.22 680.14 245.82 594.9 240.07 524.45 199.24 481.46 129.77 466.03 49.35 470.76 -12.44 481.9 -30.39 499.45 4.51 508.89 76.95 506.97 144.16 503.69 170.97 489.9 137.02 466.43 58.28 442.95 -15.63 410.91 -43.93 369.93 -14.58 327.58 58.78 275.45 140.22 217.21 162.4 135.08 76.38 239.12 130.74 187.76 186.13 97.55 243.34 9.76 295.22 -22.92 344.84 18.53 385.84 106.66 419.2 172.07 450.56 154.2 477.45 62.14 500.93 -30.84 524.4 -43.65 543.34 34.9 556.25 136.01 568.01 164.18 539.44 -0.66 510.95 60.47 504.68 153.22 514.52 231.84 549.23 270.55 607.39 265.21 681.94 231.91 754.56 194.46 801.57 160.92 807.35 149.03 766.8 157.51 702.57 179.99 642.55 212.55 622.25 246.59 659.58 283.66 738.25 315.44 817 338.91Q817.02 338.92 817.02 338.92" opacity="0.97"></path><path d="M749.01 430.11C781.23 448.89 770.83 475.59 724.23 508.51 658.08 540.22 593.71 575.05 549.09 607.87 533.61 632.36 546.37 645.63 577.55 641.14 619.68 622.09 656.34 586.7 678.91 543.8 687.12 513.37 676.92 504.87 652.91 531.43 618.28 591.18 578.54 669.62 539.05 738.48 497.83 768.48 461 745.4 430.08 677.65 399.51 604.08 374.64 562.59 355.86 581.17 324.23 710.54 338.65 537.75 348.75 538.25 343.82 582.75 327.06 633.13 294.25 669.79 247.06 686.52 188.14 675.79 126.46 644.58 75.73 598.24 46.12 547.13 47.84 499.25 78.69 451.91 132.38 412.71 191.28 381.62 230.64 352.19 237.23 328.47 205.01 309.69 140.11 295.12 293.25 334.58 273.85 285.12 245.13 223.85 217.7 151.21 197.82 87.16 183.22 53.89 180.22 63.48 187.04 115.34 199.46 182.25 217.56 234.94 237.94 241.2 259.89 191.47 281.05 108.57 299.83 37.17 318.61 18.59 334.11 63.88 347.58 144.69 362.61 219.7 378.67 253.46 398.78 237.22 424.51 182.13 458.42 120.53 501.96 80.33 550.78 73.32 605.17 104.09 658.5 159.12 700.85 226.64 726.47 288.98 727.34 336.98 704.99 370.4 661.77 388.06 609.53 396.11 569.08 395.83 552.19 395.16 569.59 398.87 619.77 401.36 687.55 411.32 748.99 430.1Q749.01 430.11 749.01 430.11" opacity="0.71"></path><path d="M681.02 403.76C713.99 431.93 655.49 432.51 558.13 413.64 479.45 406.74 455.08 415.53 472.06 473.94 531.54 621.46 544.1 560.18 506.45 513.15 478.29 627.67 443.59 706.16 396.2 666.94 339.94 552.84 263.93 461.79 183.56 439.57 129.67 476.27 124.16 521.49 182.19 541.17 258.9 549.59 305.99 533.78 273.02 505.61 177 477.45 104.53 439.59 106.29 382.36 174.26 313.87 268.45 224.69 342.68 151.08 390.76 166.96 395.8 264.65 427.46 105.17 455.62 102.01 502.3 213.71 557.8 312.19 620.36 281.11 561.72 181.53 482.23 254.82 501.1 322.51 584.97 375.59 681 403.75Q681.02 403.76 681.02 403.76" opacity="0.68"></path><path d="M612.89 362.7C645.21 381.48 633.69 416.34 589.05 464.31 526.12 511.34 463.3 563.8 414.31 603.57 378.89 615.7 358.2 589.95 344.85 527.79 337.17 464.51 326.31 426.55 307.53 445.1 288.75 516.49 263.83 591.96 238.98 630.5 219.78 622.48 211.17 571.63 221.97 506.44 246.35 438.6 289.26 386.91 338.43 352.92 369.3 327.08 373.21 307.72 340.89 288.95 279.42 270.17 218.83 253.75 181.32 247.04 170.61 248.5 192.02 270.87 232.2 314.11 284.27 354.69 335.31 385.62 376.68 379.87 416.5 327.58 446.29 244.49 465.07 173.1 483.85 154.55 489.84 200.12 482.56 277.17 462.86 375.92 408.22 384.5 431.95 358.44 483.22 343.01 551.42 343.92 612.89 362.7Q612.89 362.7 612.89 362.7" opacity="0.98"></path></g></svg>