<svg height="1398" viewBox="-2.235 0 1111.355 618.998" width="2500" xmlns="http://www.w3.org/2000/svg"><path d="m956.477 456.121c0-16.458 13.28-29.801 29.662-29.801 16.386 0 29.664 13.343 29.664 29.801s-13.278 29.799-29.664 29.799c-16.382 0-29.662-13.341-29.662-29.799z" fill="#11456e"/><path d="m1102.442 217.488c-6.668-12.054-19.828-19.255-35.205-19.255h-114.473c-61.108-115.94-214.778-198.233-394.821-198.233-180.037 0-333.713 82.293-394.823 198.233h-23.741c-20.433 0-43.153 12.567-54.022 29.858l-78.516 125.052c-8.178 13.01-9.076 28.002-2.408 40.052 6.669 12.073 19.833 19.272 35.22 19.272h119.247c58.017 120.306 214.724 206.529 399.043 206.529 184.315 0 341.024-86.223 399.035-206.529h10.521c20.434 0 43.156-12.56 54.021-29.873l78.52-125.033c8.178-13.028 9.08-28.01 2.402-40.073z" fill="#fefefe"/><path d="m1088.301 250.19-78.519 125.039c-8.365 13.339-26.536 23.392-42.283 23.392h-19.331c-52.455 119.587-207.531 206.529-390.225 206.529-130.889 0-254.974-45.946-331.938-122.916-25.79-25.774-45.337-53.943-58.338-83.613h-128.016c-10.418 0-18.844-4.426-23.105-12.112-4.241-7.709-3.507-17.176 2.028-26.007l78.519-125.035c8.375-13.329 26.546-23.385 42.29-23.385h32.148c12.901-26.625 31.111-51.955 54.474-75.313 76.964-76.965 201.049-122.916 331.938-122.916 130.883 0 254.97 45.951 331.938 122.916 23.359 23.358 41.563 48.688 54.47 75.313h122.886c10.425 0 18.829 4.415 23.085 12.113 4.265 7.702 3.52 17.176-2.021 25.995zm14.141-32.699c-6.668-12.057-19.828-19.256-35.205-19.256h-114.473c-61.108-115.94-214.778-198.233-394.821-198.233-180.034 0-333.715 82.293-394.825 198.233h-23.735c-20.437 0-43.157 12.561-54.026 29.856l-78.516 125.054c-8.18 13.008-9.076 27.998-2.408 40.048 6.669 12.077 19.831 19.276 35.218 19.276h119.249c58.021 120.306 214.722 206.529 399.043 206.529 184.315 0 341.024-86.223 399.039-206.529h10.517c20.434 0 43.156-12.56 54.021-29.876l78.52-125.034c8.178-13.031 9.08-28.01 2.402-40.068z" fill="#11456e"/><path d="m697.871 496.593 29.612-10.807c6.151-2.49 6.447-7.179.652-10.404 0 0-8.535-4.772-21.697.387-12.534 4.937-15.724 13.337-15.724 13.337-2.366 6.2.851 9.566 7.157 7.487z" fill="#ce303d"/><path d="m584.256 511.135 26.004-1.553c5.455-.51 6.792-4.158 2.963-8.096 0 0-5.633-5.79-17.267-4.809-11.097.959-15.603 6.851-15.603 6.851-3.335 4.34-1.581 7.769 3.903 7.607z" fill="#ce303d"/><path d="m641.096 507.951 28.327-4.26c5.933-1.121 7.034-5.243 2.468-9.156 0 0-6.752-5.813-19.403-3.573-12.065 2.121-16.421 9.035-16.421 9.035-3.223 5.1-.969 8.667 5.029 7.954z" fill="#ce303d"/><path d="m757.94 470.876 29.114-18.825c5.998-4.162 5.159-9.278-1.844-11.318 0 0-10.322-3.039-23.168 5.734-12.239 8.357-13.613 18.128-13.613 18.128-1.021 7.239 3.263 10.053 9.511 6.281z" fill="#ce303d"/><path d="m352.446 483.99c-30.977-1.205-53.871.593-53.871.593l16.619-57.245c18.142-.452 35.281.995 52.66 3.442zm49.544-85.285h45.257v35.114l-45.257-7.383zm461.603-.085c-90.467 110.679-201.205 123.588-254.739 125.444-53.573 1.854-118.209-14.765-179.155-29.55-19.406-4.711-39.74-7.341-58.46-8.77l14.879-51.374c48.147 8.341 101.162 21.966 183.946 23.209 120.752 1.794 183.431-56.165 186.39-58.959h-573.534c12.288 26.085 29.97 50.928 52.886 73.828 74.413 74.413 194.843 118.853 322.141 118.853 174.338 0 322.573-80.862 375.024-192.681z" fill="#c52f40"/><path d="m641.096 102.608c-5.998-.723-8.252 2.863-5.029 7.964 0 0 4.356 6.893 16.421 9.025 12.651 2.232 19.403-3.56 19.403-3.56 4.566-3.926 3.465-8.055-2.468-9.167z" fill="#ce303d"/><path d="m584.256 99.417c-5.484-.154-7.238 3.275-3.903 7.627 0 0 4.506 5.884 15.603 6.831 11.634.992 17.267-4.801 17.267-4.801 3.829-3.939 2.492-7.578-2.963-8.097z" fill="#ce303d"/><path d="m787.054 158.508-29.114-18.823c-6.248-3.772-10.532-.95-9.511 6.283 0 0 1.374 9.777 13.613 18.131 12.846 8.763 23.168 5.73 23.168 5.73 7.003-2.051 7.842-7.151 1.844-11.321z" fill="#ce303d"/><path d="m697.871 113.968c-6.306-2.079-9.523 1.295-7.157 7.495 0 0 3.19 8.394 15.724 13.317 13.162 5.168 21.697.409 21.697.409 5.795-3.24 5.499-7.921-.652-10.423z" fill="#ce303d"/><path d="m315.195 182.532-16.618-57.246s22.888 1.798 53.871.594l15.404 53.203c-17.375 2.461-34.514 3.896-52.657 3.449zm86.797 2.771 45.251-7.389v34.168h309.352s-62.792-60.947-186.531-59.102c-82.784 1.247-135.801 14.87-183.95 23.199l-14.877-51.371c18.724-1.418 39.058-4.05 58.462-8.759 60.942-14.778 125.584-31.397 179.155-29.551 53.554 1.848 164.365 14.773 254.861 125.584h65.159c-12.023-23.056-28.326-45.057-48.783-65.524-74.428-74.418-194.851-118.857-322.148-118.857-127.298 0-247.724 44.439-322.14 118.857-20.463 20.467-36.772 42.468-48.785 65.524h214.974z" fill="#c52f40"/><path d="m1067.237 225.932c10.954 0 15.161 7.606 9.326 16.892l-78.51 125.045c-5.825 9.295-19.58 16.881-30.554 16.881h-927.844c-10.976 0-15.184-7.586-9.349-16.881l78.525-125.045c5.832-9.286 19.58-16.892 30.55-16.892z" fill="#11456e"/><path d="m205.773 331.972h16.039c13.56 0 19.895-.732 31.999-7.241 9.737-5.235 15.7-14.046 20.544-22.097 5.528-9.172 3.457-16.217.237-21.293-2.345-3.672-6.934-6.463-15.562-7.738h-18.18zm-44.65.876 36.342-60.309-22.242.093 13.365-22.185h78.335c23.475 0 37.003 4.229 45.233 14.163 8.15 9.848 12.929 29.928 3.663 45.316-8.263 13.707-16.357 27.798-34.63 37.406-20.241 10.707-52.003 8.074-76.243 8.074h-79.586l13.371-22.189z" fill="#fefefe"/><path d="m374.919 333.217h14.133l-13.365 22.189h-61.744l13.365-22.189h14.01l21.671-35.99-13.939.235 13.357-22.187h47.743z" fill="#fefefe"/><path d="m707.273 333.217h14.135l-13.369 22.189h-61.744l13.369-22.189h14.001l21.677-35.99-13.948.235 13.377-22.187h47.734z" fill="#fefefe"/><path d="m600.206 293.271 43.512-20.699 27.192.162-13.094 21.392-13.969.061-36.768 17.477 14.31 18.801 20.229.203-13.369 22.189h-36.192l-20.352-30.43-15.606 30.43h-50.415l13.369-22.189h13.87l36.752-60.79-14.127.218 13.373-22.202h47.937l-31.605 52.473z" fill="#fefefe"/><path d="m887.798 331.077c-.814 1.714-.822 4.648 3.214 6.545 4.352 2.04 7.331.963 9.697.963 5.131 0 12.154-2.451 14.54-6.429 1.959-3.24.532-4.262-8.461-6.075l-1.6-.329c-15.368-3.058-38.657-7.687-26.954-27.117 9.832-16.333 35.18-24.878 55.127-24.878 8.27 0 18.426 3.382 18.426 3.382l.936-1.864h27.525l-15.934 26.472h-24.53s2.836-4.818-2.172-7.262c-3.417-1.685-6.943-1.44-9.41-1.44-4.693 0-10.739 1.777-12.729 5.059-1.864 3.099-.008 4.266 9.426 5.933 15.108 2.632 40.204 7.012 27.897 27.447-10.707 17.76-37.425 25.861-57.723 25.861-13.207 0-20.895-4.612-20.895-4.612l-1.613 2.673h-28.132l16.773-27.86h28.299z" fill="#fefefe"/><path d="m784.497 305.283s8.493-16.052 22.698-16.052c17.924 0 8.226 16.052 8.226 16.052zm57.245-23.433c-6.395-8.894-21.494-10.624-34.628-10.624-27.586 0-54.299 20.28-61.063 43.821-3.282 11.42-1.017 22.084 6.37 30.039 7.347 7.894 18.901 12.176 32.554 12.255 40.144.23 47.998-28.383 47.998-28.383h-23.526l-1.243 1.121c-5.568 5.032-11.116 8.502-19.172 8.096-17.925-.918-9.155-19.559-9.155-19.559h61.658s3.315-8.32 3.416-8.609c1.876-7.388 5.099-16.626-3.209-28.157z" fill="#fefefe"/><path d="m391.735 266.758c13.113 0 25.412-4.772 27.451-10.664 2.036-5.892-6.936-10.666-20.07-10.666-13.112 0-25.411 4.774-27.45 10.666-2.05 5.892 6.935 10.664 20.069 10.664z" fill="#fefefe"/><path d="m723.304 266.758c13.114 0 25.41-4.772 27.447-10.664 2.051-5.892-6.933-10.666-20.055-10.666s-25.422 4.774-27.459 10.666c-2.039 5.892 6.934 10.664 20.067 10.664z" fill="#fefefe"/><path d="m489.318 348.085 11.218-20.537h-18.923l-2.777 4.163c-5.68 5.236-9.249 7.85-17.08 7.85-5.956 0-11.968.324-14.316-7.382-1.226-4.042-1.06-9.381 1.481-14.504 5.494-11.024 15.142-18.756 26.213-21.449 6.914-1.688 12.362 3.1 14.023 8.291l.572 1.777h18.924l15.427-31.019h-19.669s-.021 4.945-1.685 3.588c-4.605-3.771-11.226-5.802-19.26-5.802-25.86 0-57.265 6.934-70.196 41.557-4.444 11.93-2.385 22.147 3.702 30.019 7.843 10.16 16.619 13.847 28.156 14.769 32.534 2.606 44.19-11.321 44.19-11.321z" fill="#fefefe"/><g fill="#ffcf2a"><path d="m298.575 125.286 16.619 57.246c18.142.447 35.281-.988 52.66-3.449l-15.408-53.203c-30.977 1.204-53.871-.594-53.871-.594z"/><path d="m447.245 212.195v-34.281l-45.253 7.392v26.889z"/><path d="m785.21 169.827s-10.322 3.038-23.168-5.73c-12.239-8.354-13.613-18.131-13.613-18.131-1.021-7.229 3.263-10.055 9.511-6.283l29.114 18.823c5.998 4.17 5.159 9.27-1.844 11.321zm-57.075-34.638s-8.535 4.759-21.697-.409c-12.534-4.923-15.724-13.317-15.724-13.317-2.366-6.2.856-9.574 7.157-7.495l29.612 10.798c6.151 2.502 6.447 7.183.652 10.423zm-56.244-19.15s-6.752 5.792-19.403 3.56c-12.065-2.134-16.421-9.025-16.421-9.025-3.223-5.101-.969-8.691 5.029-7.963l28.327 4.261c5.933 1.112 7.034 5.239 2.468 9.167zm-58.664-6.965s-5.637 5.789-17.271 4.803c-11.097-.947-15.603-6.831-15.603-6.831-3.335-4.359-1.581-7.781 3.903-7.627l26.004 1.561c5.455.518 6.792 4.157 2.967 8.094zm-4.373-22.578c-53.573-1.842-118.209 14.777-179.155 29.555-19.406 4.711-39.74 7.341-58.457 8.756l14.876 51.372c48.149-8.332 101.162-21.956 183.946-23.201 123.739-1.841 186.527 59.106 186.527 59.106h107.124c-90.496-110.811-201.307-123.742-254.861-125.588z"/><path d="m298.575 484.581 16.619-57.246c18.142-.447 35.281 1 52.66 3.449l-15.408 53.203c-30.977-1.204-53.871.594-53.871.594z"/><path d="m447.245 398.703v35.114l-45.253-7.377v-27.737z"/><path d="m787.054 452.053-29.114 18.825c-6.248 3.77-10.532.958-9.511-6.283 0 0 1.374-9.77 13.613-18.131 12.846-8.768 23.168-5.731 23.168-5.731 7.003 2.042 7.842 7.159 1.844 11.32zm-59.571 33.729-29.612 10.811c-6.301 2.079-9.523-1.287-7.157-7.485 0 0 3.19-8.402 15.724-13.339 13.162-5.157 21.697-.385 21.697-.385 5.795 3.22 5.499 7.912-.652 10.398zm-58.06 17.907-28.327 4.262c-5.998.718-8.252-2.856-5.029-7.951 0 0 4.356-6.913 16.421-9.038 12.651-2.241 19.403 3.571 19.403 3.571 4.566 3.915 3.465 8.035-2.468 9.156zm-59.167 5.895-26 1.549c-5.484.161-7.238-3.26-3.907-7.607 0 0 4.51-5.892 15.607-6.85 11.634-.98 17.271 4.814 17.271 4.814 3.825 3.933 2.488 7.586-2.971 8.094zm253.459-111.108h-107.12s-62.792 60.939-186.531 59.105c-82.784-1.245-135.801-14.868-183.95-23.211l-14.877 51.376c18.724 1.422 39.054 4.059 58.462 8.768 60.942 14.785 125.584 31.404 179.155 29.55 53.554-1.856 164.365-14.765 254.861-125.588z"/><path d="m352.446 125.879 15.408 53.208c-17.379 2.455-34.518 3.896-52.66 3.443l-16.619-57.246s22.894 1.798 53.871.595zm-38.584 57.042.286.978 1.017.021c16.465.406 33.273-.694 52.879-3.47l1.583-.223-.448-1.526-15.41-53.208-.294-1.041-1.092.048c-30.517 1.187-53.472-.582-53.705-.601l-1.992-.154.551 1.931z"/><path d="m352.446 483.99c-30.977-1.205-53.871.593-53.871.593l16.619-57.245c18.142-.452 35.281.995 52.66 3.442zm15.598-54.574c-19.606-2.771-36.414-3.875-52.879-3.464l-1.017.02-.286.975-16.625 57.245-.551 1.938 1.992-.161c.233-.02 23.188-1.777 53.705-.594l1.092.04.294-1.041 15.41-53.206.448-1.528z"/><path d="m448.634 177.914v-1.623l-1.611.265-45.244 7.384-1.161.183v28.071h1.374v-26.888l45.255-7.392v34.28h1.387z"/><path d="m692.051 115.568c.949-1 2.914-1.1 5.35-.293l29.603 10.796c2.375.96 3.814 2.316 3.894 3.709.094 1.392-1.163 2.918-3.436 4.197-.081.036-8.198 4.361-20.514-.483-11.748-4.618-14.908-12.449-14.941-12.531-.928-2.428-.916-4.403.044-5.395zm14.387 19.209c13.162 5.171 21.697.412 21.697.412 5.795-3.242 5.503-7.923-.652-10.425l-29.612-10.798c-6.301-2.079-9.523 1.297-7.157 7.495 0 0 3.19 8.395 15.724 13.316z"/><path d="m636.293 105.148c.641-1.022 2.339-1.439 4.601-1.17l28.326 4.27c2.233.419 3.72 1.335 4.037 2.51.315 1.169-.511 2.721-2.262 4.229-.073.053-6.476 5.324-18.264 3.246-11.238-1.979-15.461-8.342-15.484-8.405-1.249-1.957-1.598-3.671-.954-4.68zm16.195 14.449c12.651 2.232 19.403-3.556 19.403-3.556 4.566-3.93 3.465-8.059-2.468-9.171l-28.327-4.262c-5.998-.723-8.252 2.868-5.029 7.968 0 0 4.356 6.889 16.421 9.021z"/><path d="m751.222 139.849c1.317-.859 3.51-.491 5.969 1.001l29.109 18.817c2.367 1.644 3.591 3.504 3.336 5.072-.256 1.568-2.011 2.946-4.815 3.765-.093.028-9.913 2.701-21.993-5.551-11.521-7.871-13.012-17.086-13.033-17.177-.393-2.902.126-5.052 1.427-5.927zm10.82 24.248c12.846 8.768 23.168 5.73 23.168 5.73 7.003-2.051 7.842-7.151 1.844-11.317l-29.114-18.827c-6.248-3.772-10.532-.946-9.511 6.283 0 0 1.374 9.781 13.613 18.131z"/><path d="m580.231 102.171c.467-.918 1.958-1.426 3.943-1.369l25.993 1.56c1.97.188 3.396.88 3.753 1.859.356.975-.275 2.428-1.682 3.884-.214.211-5.394 5.312-16.173 4.396-10.27-.878-14.581-6.251-14.622-6.304-1.223-1.611-1.681-3.108-1.212-4.026zm15.725 11.706c11.634.988 17.271-4.801 17.271-4.801 3.825-3.937 2.488-7.582-2.967-8.101l-26.004-1.56c-5.484-.152-7.238 3.274-3.903 7.629 0 0 4.506 5.884 15.603 6.833z"/><path d="m429.699 116.049c60.946-14.778 125.584-31.397 179.155-29.551 53.554 1.848 164.365 14.773 254.861 125.584h-107.12s-62.792-60.947-186.531-59.102c-82.784 1.247-135.797 14.87-183.946 23.199l-14.876-51.371c18.717-1.418 39.053-4.05 58.457-8.759zm-44.909 60.52.335 1.191 1.226-.217c9.369-1.617 18.822-3.423 28.835-5.331 41.399-7.891 88.328-16.845 154.899-17.845 113.622-1.692 176.282 50.437 184.585 57.827h110.921l-.806-.987c-65.391-80.065-151.486-122.496-255.891-126.099-50.716-1.739-110.908 12.901-169.112 27.064l-10.412 2.531c-17.17 4.158-36.758 7.096-58.232 8.727l-1.703.134.477 1.631z"/><path d="m401.992 398.703h45.253v35.114l-45.253-7.377zm-1.378 0v28.898l1.167.205 45.243 7.381 1.612.266v-36.953h-48.022z"/><path d="m608.854 524.064c-53.573 1.854-118.209-14.765-179.155-29.55-19.406-4.709-39.74-7.346-58.457-8.768l14.876-51.376c48.149 8.343 101.162 21.966 183.946 23.211 123.301 1.834 186.073-58.653 186.511-59.082h-2.059c-8.83 7.829-71.404 59.384-184.431 57.696-66.571-1.001-113.496-9.955-154.899-17.849-10.013-1.896-19.462-3.708-28.837-5.339l-1.224-.209-.337 1.184-14.876 51.373-.477 1.651 1.701.126c21.476 1.631 41.061 4.569 58.234 8.727l10.411 2.527c58.205 14.155 118.397 28.819 169.113 27.064 104.405-3.611 190.5-46.028 255.891-126.094l.705-.857h-1.796c-90.488 110.8-201.286 123.709-254.84 125.565z"/><path d="m691.999 489.598c.041-.083 3.197-7.915 14.949-12.525 12.296-4.85 20.404-.546 20.514-.483 2.273 1.26 3.526 2.792 3.436 4.198-.08 1.385-1.519 2.735-3.894 3.71 0 0-29.603 10.79-29.554 10.769-2.485.817-4.45.734-5.399-.268-.96-.994-.972-2.974-.052-5.401zm5.872 6.997 29.612-10.811c6.151-2.49 6.447-7.178.652-10.398 0 0-8.535-4.774-21.697.385-12.534 4.933-15.724 13.337-15.724 13.337-2.366 6.2.851 9.566 7.157 7.487z"/><path d="m637.23 500.734c.04-.063 4.263-6.423 15.501-8.403 11.756-2.079 18.158 3.161 18.251 3.24h.013-.013c1.764 1.512 2.59 3.063 2.275 4.221-.317 1.187-1.804 2.105-4.037 2.531 0 0-28.326 4.262-28.286 4.262-2.306.266-4-.161-4.641-1.162-.632-1.021-.295-2.73.937-4.689zm3.866 7.217 28.327-4.262c5.936-1.121 7.034-5.241 2.471-9.156 0 0-6.751-5.812-19.406-3.567-12.06 2.121-16.421 9.034-16.421 9.034-3.223 5.095-.969 8.669 5.029 7.951z"/><path d="m581.443 504.363c.041-.043 4.352-5.424 14.622-6.304 10.767-.915 15.951 4.163 16.173 4.387v.021-.021c1.407 1.469 2.038 2.918 1.682 3.896-.357.975-1.783 1.672-3.753 1.855 0 0-25.993 1.548-25.951 1.548-2.027.063-3.518-.448-3.985-1.343-.469-.918-.011-2.427 1.212-4.039zm2.813 6.772 26.004-1.553c5.455-.508 6.792-4.162 2.967-8.094 0 0-5.637-5.79-17.271-4.815-11.097.959-15.603 6.851-15.603 6.851-3.335 4.346-1.581 7.773 3.903 7.611z"/><path d="m749.795 464.799c.021-.099 1.508-9.321 13.033-17.193 12.073-8.236 21.859-5.585 21.993-5.544 2.804.812 4.559 2.201 4.815 3.75.255 1.571-.969 3.445-3.336 5.077 0 0-29.113 18.827-29.072 18.807-2.501 1.506-4.689 1.874-6.006 1.015-1.305-.875-1.824-3.037-1.427-5.912zm8.145 6.075 29.114-18.818c5.998-4.162 5.159-9.285-1.844-11.32 0 0-10.322-3.038-23.168 5.73-12.239 8.361-13.613 18.131-13.613 18.131-1.021 7.239 3.263 10.053 9.511 6.277z"/></g><path d="m401.992 212.195h45.253"/><path d="m863.715 398.478h-107.115l-.025.021h107.119s.012-.021.021-.021z" fill="#ffcf2a"/><path d="m986.031 454.912c2.795 0 5.285-.202 5.285-3.548 0-2.693-2.441-3.183-4.726-3.183h-4.492v6.731zm-3.933 12.196h-3.286v-21.719h8.268c5.139 0 7.688 1.896 7.688 6.178 0 3.875-2.451 5.57-5.648 5.975l6.178 9.566h-3.678l-5.736-9.424h-3.786zm3.982 4.834c8.531 0 15.259-6.668 15.259-15.744 0-8.913-6.728-15.644-15.259-15.644-8.613 0-15.344 6.731-15.344 15.644 0 9.076 6.731 15.744 15.344 15.744zm-19.137-15.744c0-10.809 8.77-18.785 19.137-18.785 10.267 0 19.044 7.976 19.044 18.785 0 10.91-8.777 18.882-19.044 18.882-10.367 0-19.137-7.972-19.137-18.882z" fill="#fefefe"/></svg>