<?xml version="1.0" encoding="UTF-8" standalone="no"?>
<!-- Created with Inkscape (http://www.inkscape.org/) -->

<svg
   xmlns:dc="http://purl.org/dc/elements/1.1/"
   xmlns:cc="http://creativecommons.org/ns#"
   xmlns:rdf="http://www.w3.org/1999/02/22-rdf-syntax-ns#"
   xmlns:svg="http://www.w3.org/2000/svg"
   xmlns="http://www.w3.org/2000/svg"
   xmlns:sodipodi="http://sodipodi.sourceforge.net/DTD/sodipodi-0.dtd"
   xmlns:inkscape="http://www.inkscape.org/namespaces/inkscape"
   id="svg2"
   version="1.1"
   inkscape:version="0.48.1 r9760"
   width="178.275"
   height="116.9"
   xml:space="preserve"
   sodipodi:docname="Everlast-logo-2011.eps"><metadata
     id="metadata8"><rdf:RDF><cc:Work
         rdf:about=""><dc:format>image/svg+xml</dc:format><dc:type
           rdf:resource="http://purl.org/dc/dcmitype/StillImage" /><dc:title></dc:title></cc:Work></rdf:RDF></metadata><defs
     id="defs6" /><sodipodi:namedview
     pagecolor="#ffffff"
     bordercolor="#666666"
     borderopacity="1"
     objecttolerance="10"
     gridtolerance="10"
     guidetolerance="10"
     inkscape:pageopacity="0"
     inkscape:pageshadow="2"
     inkscape:window-width="891"
     inkscape:window-height="646"
     id="namedview4"
     showgrid="false"
     inkscape:zoom="2.6868603"
     inkscape:cx="89.137497"
     inkscape:cy="63.102271"
     inkscape:window-x="7"
     inkscape:window-y="0"
     inkscape:window-maximized="0"
     inkscape:current-layer="g10" /><g
     id="g10"
     inkscape:groupmode="layer"
     inkscape:label="ink_ext_XXXXXX"
     transform="matrix(1.25,0,0,-1.25,0,116.9)"><g
       id="g12"
       transform="scale(0.1,0.1)"><path
         d="m 1406.6,226.535 c -1.16,0.653 -3.06,0.977 -5.63,0.977 l -3.94,0 0,-9.59 4.17,0 c 1.97,0 3.43,0.203 4.42,0.574 1.81,0.723 2.75,2.102 2.75,4.141 0,1.984 -0.6,3.273 -1.77,3.898 z m -4.99,4.199 c 3.26,0 5.65,-0.312 7.23,-0.957 2.73,-1.144 4.13,-3.379 4.13,-6.718 0,-2.364 -0.91,-4.121 -2.63,-5.196 -0.89,-0.617 -2.21,-1.086 -3.85,-1.289 2.07,-0.363 3.58,-1.222 4.55,-2.621 0.97,-1.394 1.43,-2.75 1.43,-4.082 l 0,-1.941 c 0,-0.645 0.01,-1.309 0.08,-1.992 0.04,-0.735 0.13,-1.141 0.27,-1.395 l 0.18,-0.313 -4.44,0 c -0.02,0.079 -0.07,0.176 -0.07,0.215 -0.06,0.098 -0.06,0.274 -0.1,0.352 l -0.02,0.828 0,2.148 c 0,3.02 -0.88,5.059 -2.52,6.008 -1.02,0.594 -2.72,0.84 -5.2,0.84 l -3.62,0 0,-10.391 -4.7,0 0,26.504 9.28,0 z m -14.18,1.344 c -4.01,-4.09 -6.03,-8.961 -6.03,-14.695 0,-5.789 2.02,-10.762 5.97,-14.785 4.05,-4.051 8.95,-6.102 14.69,-6.102 5.75,0 10.66,2.051 14.65,6.102 4.05,4.023 6.05,8.996 6.05,14.785 0,5.734 -2,10.605 -6.05,14.695 -4,4.027 -8.92,6.078 -14.65,6.078 -5.68,0 -10.6,-2.051 -14.63,-6.078 z m 31.68,-31.812 c -4.69,-4.668 -10.37,-7.051 -17.05,-7.051 -6.68,0 -12.34,2.383 -17.05,7.051 -4.67,4.734 -6.97,10.429 -6.97,17.168 0,6.628 2.3,12.285 7.03,16.98 4.72,4.68 10.35,7.004 16.99,7.004 6.68,0 12.36,-2.324 17.05,-7.004 4.68,-4.656 7.09,-10.352 7.09,-16.98 0,-6.739 -2.41,-12.422 -7.09,-17.168"
         style="fill:#696566;fill-opacity:1;fill-rule:nonzero;stroke:none"
         id="path14" /><path
         d="m 1404.51,935.117 0.21,-122.625 -37.52,-14.992 0.02,67.355 -25.79,-10.625 0.16,-573.925 21.54,-8.77 0,-52.012 -99.34,38.633 0.04,50.156 23.97,-8.078 -0.06,534.2 -25.8,-8.731 0,-65.644 -36.15,-12.356 0.06,116.555 178.66,70.859"
         style="fill:#696566;fill-opacity:1;fill-rule:nonzero;stroke:none"
         id="path16" /><path
         d="m 1207.69,844.25 c 0,-37.824 0,-102.012 0,-102.012 l -41.02,-13.566 0,69.719 -30.37,-7.5 c 0,0 0,-77.832 0,-95.891 0,-2.871 -0.08,-6.863 1.53,-11.355 13.21,-37.063 75.82,-122.2 85.89,-149.61 0.74,-2.09 1.33,-8.097 1.33,-10.039 0,-37.969 0.08,-207.226 0.08,-230.879 0,-11.211 -12.05,-18.293 -21.39,-16.347 -18.28,3.816 -71,17.507 -92,23.679 -4.64,1.406 -13.35,9.797 -13.35,21.004 -0.08,29.336 -0.04,107.641 -0.04,107.641 l 44.38,-9.758 -0.01,-77.215 29.16,-7.18 c 0,0 0,143.008 0,174.582 0,2.071 -0.64,7.207 -1.22,8.7 -10.24,26.386 -71.02,113.652 -85.12,146.484 -2.67,6.211 -3.09,11.633 -3.09,16.379 0,28.269 -0.04,97.754 -0.04,126.219 0,10.019 9.22,21.113 18.15,24.289 17.65,6.328 66.67,20.926 90.5,26.211 8.29,1.843 16.63,-4.59 16.63,-13.555"
         style="fill:#696566;fill-opacity:1;fill-rule:nonzero;stroke:none"
         id="path18" /><path
         d="m 266.133,840.48 0,-49.027 -16.863,4.106 c 0,0 25.476,-264.621 26.746,-264.043 -0.125,-0.168 20.175,253.203 20.175,253.203 l -15.046,3.34 0.015,48.847 81.953,-16.996 -0.039,-48.289 -16.25,2.941 -47.539,-472.589 -48.152,-11.453 -56.613,519.433 -14.93,4.258 0,49.871 86.543,-23.602"
         style="fill:#696566;fill-opacity:1;fill-rule:nonzero;stroke:none"
         id="path20" /><path
         d="m 517.82,798.781 0.039,-103.515 -36.824,3.789 -0.019,55.789 -27.704,3.261 0,-142.148 48.094,0.078 0.047,-52.676 -48.183,0 0.042,-186.816 29.508,3.367 0.102,84.582 42.676,4.211 0,-132.07 -152.336,-20.031 0,48.195 24.519,3.933 0,397.161 -18.386,2.957 0,48.183 138.425,-18.25"
         style="fill:#696566;fill-opacity:1;fill-rule:nonzero;stroke:none"
         id="path22" /><path
         d="m 821.25,793.789 -0.051,-47.48 -22.261,-1.114 0.046,-355.711 31.629,-1.769 0.039,91.301 43.325,-2.356 0,-139.687 -146.848,7.226 0,47.363 18.125,-0.253 0.105,352.062 -22.605,-0.324 0,47.297 98.496,3.445"
         style="fill:#696566;fill-opacity:1;fill-rule:nonzero;stroke:none"
         id="path24" /><path
         d="m 611.824,610.586 0,134.348 33.789,-1.274 0.039,-133.074 -33.828,0 z m 99.629,-218.895 c -14.351,0.079 -14.539,11.598 -14.539,11.598 0,25.773 -0.027,109.758 -0.027,135.637 -0.293,31.047 -18.711,38.078 -18.711,38.078 7.918,5.879 18.262,15.351 18.316,30.516 -0.015,17.101 -0.054,92.316 -0.054,133.195 -1.145,15.476 -4.141,45.664 -51.211,49.91 -15.454,1.77 -109.766,6.621 -109.766,6.621 l 0,-47.586 24.59,-1.867 -0.141,-360.977 -18.125,-1.296 0.07,-47.571 88.614,5.137 -0.071,47.363 -19.16,-0.703 0,161.934 c 0,0.058 37.461,0.011 37.461,0.011 l 0.063,-153 c 1.265,-35.886 3.316,-56.296 62.691,-54.257 0,0 0.051,47.16 0,47.257"
         style="fill:#696566;fill-opacity:1;fill-rule:nonzero;stroke:none"
         id="path26" /><path
         d="m 972.156,492.664 12.422,135.102 c -0.058,0 13.676,-138.606 13.676,-138.606 l -26.098,3.504 z m 109.514,-137.176 -17.07,3.321 -58.65,455.039 -44.649,-6.543 -52.578,-425.957 -17.895,1.66 0.024,-47.52 85.625,-10.3 0,48.046 -14.165,1.883 5.161,63.281 33.927,-4.656 5.09,-64.922 -15.455,2.383 0,-48.117 90.595,-16.133 0.04,48.535"
         style="fill:#696566;fill-opacity:1;fill-rule:nonzero;stroke:none"
         id="path28" /><path
         d="m 163.855,869.004 0.024,-112.813 -40.551,10.422 0,65.567 -31.7342,11.211 0,-214.68 57.9762,-0.027 0,-59.844 -58.6794,-0.031 0.0782,-277.774 32.6642,11.613 0.027,106.524 46.594,15.82 0.027,-157.304 L 0.109375,199.465 0.078125,252.852 30.5547,266.945 30.418,867.812 0.0390625,881.691 0,935.227 163.855,869.004"
         style="fill:#696566;fill-opacity:1;fill-rule:nonzero;stroke:none"
         id="path30" /><path
         d="m 1068.93,189.309 c -5.87,0.437 -11.73,0.742 -17.69,0.976 -0.1,0.067 -29.75,1.035 -45.35,0.653 -126.105,-2.61 -240.421,-38.426 -327.406,-94.5318 -5.613,-3.6132 -12.476,-2.8789 -15.492,-1.6796 -14.051,5.3634 -80.496,30.4414 -82.578,31.2114 -2.426,0.949 -7.902,1.718 -3.281,7.792 10.461,13.77 28.887,23.86 43.586,32.286 24.734,14.211 53.867,25.586 80.804,34.796 -7.425,-0.664 -10.871,-0.753 -15.679,-1.269 -12.856,-1.406 -25.676,-3.422 -38.344,-6.066 -39.684,-8.289 -81.914,-20.868 -116.988,-41.668 -5.723,-3.399 -13.344,-0.559 -13.344,-0.559 l -50.645,18.273 c 0,0 -8.453,2.528 0.489,7.344 57.558,31.153 125.222,52.762 198.41,63.594 8.547,1.25 17.113,2.383 25.828,3.328 -7.18,0.481 -23.34,1.406 -24.402,1.406 -12.422,0.442 -24.914,0.52 -37.539,0.254 -110.114,-2.293 -211.317,-29.648 -293.071,-74.16 -3.246,-1.863 -3.597,-6.379 -0.972,-7.43 C 371.734,146.914 687.867,0.78125 688.297,0.625 c 3.582,-1.67969 8.258,0.273438 10.465,3.20312 C 761.914,86.6016 869.473,150.266 999.07,178.105 c 22.62,4.922 45.99,8.633 69.86,11.204"
         style="fill:#fde134;fill-opacity:1;fill-rule:nonzero;stroke:none"
         id="path32" /></g></g></svg>