<?xml version="1.0" encoding="utf-8"?>
<!-- Generator: Adobe Illustrator 19.2.1, SVG Export Plug-In . SVG Version: 6.00 Build 0)  -->
<svg version="1.1" id="layer" xmlns="http://www.w3.org/2000/svg" xmlns:xlink="http://www.w3.org/1999/xlink" x="0px" y="0px"
	 viewBox="0 0 652 652" style="enable-background:new 0 0 652 652;" xml:space="preserve">
<path d="M167.9,257.4h5.5v128.9h-5.5V257.4z M230.1,303.7l-19.5-25.7h-10.5v46.6h11.6v-26.6l20.3,26.6h9.8v-46.6h-11.6V303.7z
	 M288.1,314h-24.3v-7.5h21.1v-10.6h-21.1v-7.2h24v-10.6h-35.6v46.6h36V314z M322.5,300.9l15.6-22.8h-13.5l-9,13.7l-8.8-13.7H293
	l15.6,22.9l-16.2,23.7h13.5l9.6-14.6l9.5,14.6h13.8L322.5,300.9z M341.8,289h13.6v35.7h11.7V289h13.6v-11h-39V289z M420.5,278.1
	h-11.7v46.6h34v-10.8h-22.3V278.1z M461.6,306.5h21.1v-10.6h-21.1v-7.2h24v-10.6h-35.6v46.6h36V314h-24.3V306.5z M514,307.8
	l-11-29.7h-12.9l18.8,46.9h10l18.9-46.9h-12.7L514,307.8z M579.8,314h-24.3v-7.5h21.1v-10.6h-21.1v-7.2h24v-10.6h-35.6v46.6h35.9
	V314z M588.3,278.1v46.6h34v-10.8H600v-35.8H588.3z M232.6,359.6l-3.3-8l-3.3,8H232.6z M231.9,345l10.6,25h-5.7l-2.3-5.6h-10.5
	l-2.3,5.6h-5.6l10.6-25H231.9z M295.7,353.8c0-2.4-1.7-3.8-4.4-3.8H287v7.6h4.3C294.1,357.7,295.7,356,295.7,353.8L295.7,353.8z
	 M291.7,345.2c5.9,0,9.5,3.5,9.5,8.6v0.1c0,5.7-4.5,8.7-10,8.7H287v7.4h-5.5v-24.8H291.7 M354.6,353.8c0-2.4-1.7-3.8-4.4-3.8h-4.2
	v7.6h4.3C353,357.7,354.6,356,354.6,353.8L354.6,353.8z M350.6,345.2c5.9,0,9.5,3.5,9.5,8.6v0.1c0,5.7-4.5,8.7-10,8.7h-4.1v7.4h-5.5
	v-24.8H350.6 M412.4,359.6l-3.3-8l-3.3,8H412.4z M411.7,345l10.6,25h-5.7l-2.3-5.6h-10.5l-2.3,5.6H396l10.6-25H411.7z M477.2,353.6
	c0-2.3-1.6-3.5-4.3-3.5h-5.4v7.1h5.5C475.6,357.2,477.2,355.8,477.2,353.6L477.2,353.6z M482.7,353.4c0,4-2.2,6.5-5.3,7.7l6.1,8.9
	H477l-5.3-7.9h-4.3v7.9H462v-24.8h11.3c3.2,0,5.6,0.9,7.2,2.5C481.9,349.1,482.7,351,482.7,353.4L482.7,353.4 M526.4,359.9h11.7V355
	h-11.7v-5h13.3v-4.9h-18.7V370h18.9v-4.9h-13.5V359.9z M585.4,345.2h-5.5V370h17.8v-5h-12.4V345.2z M602.9,364.9h1.6v5h1v-5h1.6V364
	h-4.1V364.9z M610.5,366.8L609,364h-1v5.9h1v-4.2l1.6,2.7h0l1.6-2.7v4.2h1V364h-1L610.5,366.8z M22.5,317.2
	c1.3-17.2,9.3-32.8,22.3-44C58,262,74.6,256.6,91.8,257.9c35.4,2.8,62,33.8,59.3,69.2c-2.6,33.7-30.9,59.5-64.2,59.5
	c-1.7,0-3.3-0.1-5-0.2c-17.2-1.3-32.8-9.3-44-22.3C26.6,351,21.2,334.4,22.5,317.2 M95.2,349.2h35.4v-10.6h-24.2v-40.3H95.2V349.2z
	 M53.8,298.3H43.6v50.9h11v-31.6l23.2,31.6h9.4v-50.9h-11v30.5L53.8,298.3z"/>
</svg>
