<?xml version="1.0" encoding="utf-8"?>
<!-- Generator: Adobe Illustrator 19.2.1, SVG Export Plug-In . SVG Version: 6.00 Build 0)  -->
<svg version="1.1" id="layer" xmlns="http://www.w3.org/2000/svg" xmlns:xlink="http://www.w3.org/1999/xlink" x="0px" y="0px"
	 viewBox="0 0 652 652" style="enable-background:new 0 0 652 652;" xml:space="preserve">
<style type="text/css">
	.st0{fill:#56565B;}
	.st1{fill-rule:evenodd;clip-rule:evenodd;fill:#56565B;}
</style>
<g>
	<path class="st0" d="M44.4,285.3v-8h-6.5c-3.1,0-6.3,3.3-6.3,6.3v78c0,3.1,3.2,6.3,6.3,6.3c3.2,0,6.5-3.3,6.5-6.3v-4h11.1v4
		c0,9.5-8,17.4-17.6,17.4s-17.4-7.8-17.4-17.4v-78c0-9.5,7.8-17.4,17.4-17.4h17.6v19.1H44.4z"/>
	<path class="st0" d="M80.3,264.5c9.5,0,17.6,8,17.6,17.6v79.5c0,9.5-8,17.4-17.6,17.4c-9.6,0-17.4-7.8-17.4-17.4v-79.5
		C62.9,272.5,70.8,264.5,80.3,264.5 M74,361.6c0,3.1,3.2,6.3,6.3,6.3c3.2,0,6.5-3.3,6.5-6.3v-79.5c0-3.2-3.3-6.3-6.5-6.3
		c-3.1,0-6.3,3.1-6.3,6.3V361.6z"/>
	<polygon class="st0" points="118.7,277.3 129,303.2 139.3,277.3 139.3,266.2 150.5,266.2 150.5,377.4 139.3,377.4 139.3,306.7 
		129,332.4 118.7,306.7 118.7,377.4 107.6,377.4 107.6,266.2 118.7,266.2 	"/>
	<polygon class="st0" points="171.3,312.2 186.4,312.2 186.4,323.5 171.3,323.5 171.3,377.4 160.3,377.4 160.3,266.2 187.2,266.2 
		187.2,277.3 171.3,277.3 	"/>
	<path class="st0" d="M212.8,264.5c9.5,0,17.6,8,17.6,17.6v79.5c0,9.5-8,17.4-17.6,17.4c-9.5,0-17.4-7.8-17.4-17.4v-79.5
		C195.4,272.5,203.2,264.5,212.8,264.5 M206.5,361.6c0,3.1,3.2,6.3,6.3,6.3c3.2,0,6.5-3.3,6.5-6.3v-79.5c0-3.2-3.3-6.3-6.5-6.3
		c-3,0-6.3,3.1-6.3,6.3V361.6z"/>
	<path class="st0" d="M259.9,331.3h-6.5v46.1h-11.1v-96.9l-8-8l8-8l5.3,5.3c3.1-3.4,7.5-5.3,12.2-5.3c9.5,0,17.4,8,17.4,17.6v31.9
		c0,4.4-1.7,8.6-4.8,11.8c3.3,3.2,4.8,7.4,4.8,12v39.7h-11.1v-39.7C266.2,333.9,263,331.3,259.9,331.3 M253.4,320.2h6.5
		c3.1,0,6.3-3.2,6.3-6.3v-31.9c0-3.2-3.2-6.3-6.3-6.3c-3.3,0-6.5,3.1-6.5,6.3V320.2z"/>
	<polygon class="st0" points="304.6,277.3 304.6,377.4 293.5,377.4 293.5,277.3 282.4,277.3 282.4,266.2 315.9,266.2 315.9,277.3 	
		"/>
	<path class="st0" d="M363.9,285.3v-8h-6.5c-3.1,0-6.3,3.3-6.3,6.3v78c0,3.1,3.2,6.3,6.3,6.3c3.2,0,6.5-3.3,6.5-6.3v-4H375v4
		c0,9.5-8,17.4-17.6,17.4c-9.6,0-17.4-7.8-17.4-17.4v-78c0-9.5,7.8-17.4,17.4-17.4H375v19.1H363.9z"/>
	<path class="st0" d="M399.8,264.5c9.5,0,17.5,8,17.5,17.6v79.5c0,9.5-8,17.4-17.5,17.4c-9.6,0-17.4-7.8-17.4-17.4v-79.5
		C382.5,272.5,390.3,264.5,399.8,264.5 M393.5,361.6c0,3.1,3.2,6.3,6.3,6.3c3.2,0,6.5-3.3,6.5-6.3v-79.5c0-3.2-3.2-6.3-6.5-6.3
		c-3.1,0-6.3,3.1-6.3,6.3V361.6z"/>
	<polygon class="st0" points="438.2,266.2 438.2,366.3 456.5,366.3 456.5,377.4 427.1,377.4 427.1,266.2 	"/>
	<path class="st0" d="M477.3,264.5c9.5,0,17.6,8,17.6,17.6v79.5c0,9.5-8,17.4-17.6,17.4c-9.5,0-17.4-7.8-17.4-17.4v-79.5
		C460,272.5,467.8,264.5,477.3,264.5 M471,361.6c0,3.1,3.3,6.3,6.3,6.3c3.2,0,6.5-3.3,6.5-6.3v-79.5c0-3.2-3.3-6.3-6.5-6.3
		c-3,0-6.3,3.1-6.3,6.3V361.6z"/>
	<path class="st0" d="M524.5,331.3H518v46.1h-11.1v-96.9l-8-8l8-8l5.4,5.3c3-3.4,7.4-5.3,12.2-5.3c9.5,0,17.4,8,17.4,17.6v31.9
		c0,4.4-1.7,8.6-4.8,11.8c3.3,3.2,4.8,7.4,4.8,12v39.7h-11.1v-39.7C530.8,333.9,527.5,331.3,524.5,331.3 M518,320.2h6.5
		c3,0,6.3-3.2,6.3-6.3v-31.9c0-3.2-3.3-6.3-6.3-6.3c-3.3,0-6.5,3.1-6.5,6.3V320.2z"/>
	<path class="st0" d="M561.3,349.5v12c0,3.1,3.1,6.3,6.3,6.3c3.2,0,6.3-3.2,6.3-6.3v-20L550,301.9v-19.8c0-9.5,8-17.6,17.6-17.6
		c9.5,0,17.6,8,17.6,17.6v11.8h-11.2v-11.8c0-3.2-3.1-6.3-6.3-6.3c-3.2,0-6.3,3-6.3,6.3v16.6l23.9,39.8v23.1c0,9.5-8,17.4-17.6,17.4
		c-9.5,0-17.6-7.8-17.6-17.4v-12H561.3z"/>
	<path class="st1" d="M605.8,275.5v-3.4h3.5c1.4,0,3.2,0.3,3.2,1.6c0,2.1-2.8,1.8-4.5,1.8H605.8z M610.2,277.4
		c2.3-0.1,4.1-1,4.1-3.6c0-2.8-2.3-3.5-4.7-3.5l-5.7,0v13.2h1.8v-6.1h2.2l3.9,6.1h2.2L610.2,277.4z M608.5,287.1
		c-5.5,0-10.2-4.5-10.2-10.2c0-5.7,4.7-10.2,10.2-10.2c5.5,0,10.2,4.5,10.2,10.2C618.7,282.6,614,287.1,608.5,287.1 M608.5,289
		c6.7,0,12.1-5.3,12.1-12.1c0-6.7-5.3-12-12.1-12c-6.8,0-12.1,5.3-12.1,12C596.4,283.6,601.7,289,608.5,289"/>
</g>
</svg>
