<?xml version="1.0" encoding="utf-8"?>
<!-- Generator: Adobe Illustrator 19.2.1, SVG Export Plug-In . SVG Version: 6.00 Build 0)  -->
<svg version="1.1" id="layer" xmlns="http://www.w3.org/2000/svg" xmlns:xlink="http://www.w3.org/1999/xlink" x="0px" y="0px"
	 viewBox="0 0 652 652" style="enable-background:new 0 0 652 652;" xml:space="preserve">
<path d="M71.4,290.2c1.7,8.5,10.5,9,12.3,9h0.1c4-0.3,6.9-1.5,8.5-3.6c1.9-2.4,1.5-5.2,1.5-5.2c-1.7-8.4-11.6-8.4-12-8.4v-1.1l0,1.1
	c-3.8,0.1-6.6,1.2-8.4,3.1C71.4,287.2,71.4,289.8,71.4,290.2 M83.6,301.3c-1.3,0-12.4-0.3-14.4-10.8l0-0.1c0-0.2-0.2-3.7,2.5-6.7
	c2.2-2.4,5.5-3.7,10-3.9h0.1c0.5,0,12.1,0.1,14.2,10.2c0,0.2,0.6,3.8-1.9,6.9c-2,2.6-5.5,4.1-10.1,4.4L83.6,301.3z M86.3,343.5
	c1.2,0.8,3.2,2.4,4.2,4.9c3.3-2.6,12.4-10.4,17.8-22.2c0.1-0.2,6-10.9,4.7-24.1c0-0.7-0.8-14.7-13.3-21.2c2.2,2.4,4.2,5.8,4.3,10.1
	c0.1,0.8,0.6,7.3-5.3,12.3c0.8,0.4,1.7,0.9,2.2,1.8c0.7,1.1,0.9,2.4,0.5,4l-0.1,0.1L86.3,343.5z M89.1,352.1l-0.3-1.7
	c-0.6-3.7-4.3-5.5-4.4-5.5l-1-0.4l0.4-1l15.4-35.2c0.2-0.9,0.2-1.5-0.2-2.1c-0.7-1-2.4-1.4-3-1.5l-3.1-0.3l2.6-1.7
	c7-4.5,6.2-11.5,6.2-11.6l0-0.1c-0.1-7.7-8.1-12.5-8.2-12.5l0.8-2c19.7,5.1,20.7,25.2,20.7,25.4c1.3,13.9-4.7,24.8-5,25.3
	c-6.9,15-19.2,23.6-19.7,23.9L89.1,352.1z M48.7,350.5l30.3,0.1c-1.8-0.4-3.1-1.3-3.8-2.5c-1.1-1.9-0.3-3.9-0.3-4L89,311.8l-32-0.2
	c-0.1,0-0.1,0-0.2,0c0.2,0.1,0.5,0.1,0.7,0.1c2.4,0.5,3.9,1.4,4.7,2.9c0.9,1.9,0,3.7,0,3.8L48.7,350.5z M80.1,352.7l-34.7-0.1
	l14.9-35.1c0-0.1,0.5-1.1,0-2c-0.4-0.8-1.4-1.4-3-1.7c-0.4,0-2.6-0.3-3-2.1l0-0.2c0-0.1,0-0.8,0.6-1.4c0.5-0.5,1.2-0.8,2.2-0.8h0
	l35.3,0.2l-15.4,35.2c0,0-0.4,1.2,0.2,2.2c0.4,0.8,1.4,1.3,2.8,1.5h0c1.7,0,2.9,0.8,3,2.1l0,0.1v0.1
	C82.9,351.4,82.3,352.7,80.1,352.7 M61.8,284.9c-11.1,6.6-18.5,17-18.6,17.1c-9.5,12.3-10.6,27.2-10.6,27.4
	c-0.7,10.4,3.2,17.6,5.2,20.5l13.2-31c-4.8-3-4.8-7.9-4.8-8.1l0-0.1c1.1-7.6,8.3-8.2,10.5-8.2c0.4,0,0.7,0,0.7,0H68
	c-1.5-1.4-2.8-2.8-2.9-2.9c-2.5-2.9-3.5-7.3-3.6-7.4C60.9,289.3,61.3,286.7,61.8,284.9 M38.4,354l-1.1-1.3
	c-0.3-0.4-7.8-8.9-6.8-23.5c0-0.6,1.2-15.7,11-28.5c0.3-0.5,9-12.6,22-19.2l3.3-1.7l-1.9,3.2c0,0.1-2.3,4-1.4,8.7c0,0,0.9,4,3.1,6.5
	c0.9,1,3.4,3.7,5,4.5l-0.5,2H57.3c-0.1,0-0.3,0-0.6,0c-2.2,0-7.5,0.6-8.3,6.2c0,0.5,0.3,4.4,4.5,6.6l0.9,0.5L38.4,354z M53.7,359.7
	c3,0.6,5.5,0.6,6.2,0.6l0.1,0c1.9,0,4-0.2,6-0.6L53.7,359.7z M59.9,362.5c-1.3,0-7.9-0.1-13.6-2.9l0.5-2.1l27.8,0.1l0.3,2.1
	c-0.3,0.1-8.2,2.8-14.9,2.8H59.9z M85.1,270.6c-6,0-10.3,1.2-10.3,1.2c-25.1,5.2-39.9,28.1-40.1,28.3c-12.6,18.9-9.9,36.5-9.9,36.6
	c4.7,30.1,32.7,30.5,33.8,30.5c0.7,0,1.3,0,1.9,0c21.5,0,38.9-16.3,39.1-16.4c10.2-9.8,14.4-18.3,14.4-18.4c6.8-12.1,7-24.2,7-24.3
	c1-17.4-9.8-27.3-9.9-27.4C102.6,272.4,92.3,270.6,85.1,270.6 M60.6,369.5c-0.7,0-1.3,0-2,0h0c-0.3,0-30.9-0.4-35.9-32.3
	c-0.1-0.7-2.9-18.5,10.2-38.2c0.1-0.2,15.5-23.8,41.4-29.2c0.1,0,4.5-1.3,10.8-1.3c7.5,0,18.5,1.9,27.6,10.7
	c0.4,0.4,11.6,10.7,10.6,29.1c0,0.5-0.1,12.7-7.2,25.3c-0.1,0.3-4.3,8.9-14.9,19C100.5,353.1,83,369.5,60.6,369.5"/>
<path d="M389.1,363h-4.4v-2.9h12.4v2.9h-4.4v13.2h-3.6V363z M402.6,367.4v-4.7h4.7l0.8,0.8v3.1l-0.8,0.8H402.6z M399,376.2h3.6v-6.3
	h3.7l2,6.3h3.7l-2.3-6.8l2-2v-5l-2.3-2.2H399V376.2z M419.9,362.1l1.9,7.8h-3.9L419.9,362.1z M412.9,376.2h3.4l0.9-3.6h5.3l0.9,3.6
	h3.7l-4.5-16.1h-5.3L412.9,376.2z M432.4,373.6v-10.7h4.5l0.9,0.9v8.9l-0.9,0.9H432.4z M428.8,376.2H439l2.4-2.4v-11.3l-2.4-2.4
	h-10.3V376.2z M443.6,376.2h9.1v-2.5h-2.7v-11.1h2.7v-2.5h-9.1v2.5h2.7v11.1h-2.7V376.2z M454.9,376.2h3.2v-10.8l5.6,10.8h3.8v-16.1
	h-3.2v10.7l-5.6-10.7h-3.8V376.2z M472.7,376.2h8.1l2.3-2.3v-6.5h-7.1v2.7h3.5v2.8l-0.7,0.7h-4l-0.9-0.9v-9l0.9-0.9h4l0.7,0.7v1.5
	h3.6v-2.6l-2.2-2.2h-8.2l-2.4,2.4v11.3L472.7,376.2z M493.7,376.2h7.9l2.4-2.4v-3.2h-3.6v2.1l-0.9,0.9h-3.6l-0.9-0.9v-8.9l0.9-0.9
	h3.6l0.9,0.9v1.9h3.6v-3.1l-2.4-2.4h-7.9l-2.4,2.4v11.3L493.7,376.2z M510.8,373.6l-0.9-0.9v-8.9l0.9-0.9h3.8l0.9,0.9v8.9l-0.9,0.9
	H510.8z M508.6,376.2h8.1l2.4-2.4v-11.3l-2.4-2.4h-8.1l-2.4,2.4v11.3L508.6,376.2z M521.9,376.2h3.1v-13.4l3.9,13.4h4.1l3.9-13.4
	v13.4h3.4v-16.1h-5.5l-3.7,12.9l-3.7-12.9h-5.5V376.2z M546.9,368.1v-5.4h4.6l0.8,0.8v3.7l-0.8,0.8H546.9z M543.3,376.2h3.6v-5.6
	h6.7l2.3-2.4v-5.8l-2.3-2.4h-10.3V376.2z M562.8,362.1l1.9,7.8h-3.9L562.8,362.1z M555.8,376.2h3.4l0.9-3.6h5.3l0.9,3.6h3.7
	l-4.5-16.1h-5.3L555.8,376.2z M571.7,376.2h3.2v-10.8l5.6,10.8h3.8v-16.1h-3.2v10.7l-5.6-10.7h-3.8V376.2z M591,376.2h3.6v-4.9
	l5.1-11.2h-3.5l-3.2,7.7l-3.1-7.7h-3.9l5,11.2V376.2z M157.6,289.8c-0.2-0.3-0.7-0.6-1-0.4h-10.6c-0.7,0-1.3,0.4-1.4,1l-11.1,58.2
	c-0.1,0.4,0.1,0.8,0.3,1c0.3,0.3,0.7,0.4,1.1,0.4l10.6,0c0.6,0,1.3-0.5,1.3-1.1l11.2-58.2C158.1,290.5,158,290.1,157.6,289.8
	 M205.4,289.3c-0.2-0.3-0.6-0.5-1-0.5l-9.8,0.1c-0.6,0-1.2,0.4-1.3,1l-6.8,35.8l-9.7-35.8c-0.1-0.6-0.7-1-1.3-1l-10.7,0.1
	c-0.7,0-1.2,0.4-1.4,1l-11.1,58.6c-0.1,0.3,0,0.7,0.3,1c0.3,0.3,0.7,0.5,1.1,0.5l9.7-0.1c0.7,0,1.3-0.5,1.4-1.1l5.9-32.5l8.8,32.5
	c0.2,0.6,0.7,1,1.4,1l12.3,0c0.7,0,1.2-0.4,1.3-1.1l11.1-58.5C205.8,290,205.7,289.6,205.4,289.3 M251.1,297.1v-0.1
	c0-1.4-0.2-2.7-0.7-3.7c-0.5-1.1-1.2-2-2.3-2.6c-2-1.1-4.8-1.5-8.9-1.5h-0.1l-27.9,0.1c-0.7,0-1.3,0.4-1.4,1.1l-2,10.4
	c0,0.4,0,0.8,0.4,1.1c0.2,0.3,0.6,0.4,1,0.4l24,0h0.2c0.9,0,1.6,0,2.2,0.1c0.5,0.1,0.9,0.2,0.9,0.3l0.2,0.2c0.1,0.1,0.1,0.4,0.1,0.9
	v0.1c0,0.2-0.1,0.6-0.1,1.1c-0.1,0.6-0.2,1.2-0.3,1.9l-4.9,25.1c-0.3,1.4-0.5,2.4-0.7,3.2l0,0c-0.3,0.7-0.5,1.1-0.8,1.3
	c-0.3,0.1-0.7,0.3-1.2,0.4v0c-0.7,0.1-1.6,0.1-2.8,0.1l-11.7,0l5.7-29.6c0-0.4-0.1-0.8-0.3-1.1c-0.2-0.3-0.7-0.5-1.1-0.5l-10.5,0.1
	c-0.7,0-1.3,0.4-1.4,1l-8,41.6c-0.1,0.4,0,0.8,0.3,1.1c0.3,0.3,0.7,0.5,1.1,0.5l27.9-0.1c2.5,0,4.7-0.1,6.4-0.5
	c1.9-0.4,3.5-1.1,4.8-2.1v0c1.3-1.1,2.3-2.5,3-4.2c0.7-1.7,1.3-3.9,1.9-6.6l6.4-33.5C250.8,300.6,251.1,298.7,251.1,297.1
	 M287.8,336.4l-25.7,0.1l2.1-10.9l12.2,0c0.7,0,1.3-0.5,1.4-1.1l2-10.5c0-0.4-0.1-0.7-0.4-1c-0.2-0.3-0.7-0.5-1.1-0.5l-11.7,0.1
	l1.1-5.7c0.1-0.3,0-0.7-0.3-1.1c-0.4-0.3-0.7-0.5-1.2-0.5l-10.5,0.1c-0.7,0-1.3,0.5-1.4,1.1l-7.9,41.8c-0.1,0.4,0.1,0.8,0.3,1.1
	c0.2,0.3,0.6,0.4,1.1,0.4l37.8-0.1c0.7,0,1.3-0.5,1.4-1.1l2-10.5c0-0.4-0.1-0.8-0.4-1.1C288.6,336.6,288.2,336.4,287.8,336.4
	 M257,301.9l37.9-0.2c0.7,0,1.2-0.5,1.4-1.1l2-10.3c0-0.4-0.1-0.8-0.3-1.1c-0.2-0.4-0.7-0.5-1.1-0.5l-37.8,0.2
	c-0.7,0-1.3,0.5-1.4,1.1l-2,10.4c0,0.4,0,0.8,0.3,1.1C256.2,301.7,256.5,301.9,257,301.9 M344.3,302.4c0.4-2.2,0.6-4.1,0.6-5.8v-0.2
	c0-1.4-0.2-2.7-0.6-3.8c-0.5-1.1-1.3-2-2.3-2.6c-2-1.1-4.8-1.5-8.9-1.5H333l-27.9,0.1c-0.7,0-1.3,0.5-1.4,1.1l-2,10.4
	c0,0.4,0,0.7,0.3,1c0.3,0.3,0.7,0.5,1.1,0.5l24-0.1h0.1c0.9,0,1.6,0,2.2,0.1c0.5,0.1,0.9,0.2,1,0.2l0.1,0.2c0.1,0.2,0.1,0.4,0.1,0.9
	c0,0.3,0,0.7-0.1,1.1v0c-0.1,0.5-0.2,1.1-0.3,1.9l-0.8,4.2l0,0c-0.3,1.4-0.6,2.5-0.8,3.3c-0.2,0.7-0.4,1.1-0.7,1.2
	c-0.2,0.3-0.6,0.4-1.2,0.4c-0.7,0.1-1.6,0.1-2.8,0.1l-11.7,0.1l1.7-8.8c0.1-0.4-0.1-0.7-0.3-1c-0.2-0.3-0.6-0.5-1-0.5l-10.6,0.1
	c-0.7,0-1.3,0.4-1.4,1.1l-8,41.7c-0.1,0.4,0.1,0.8,0.3,1c0.2,0.3,0.6,0.5,1.1,0.5l10.6,0c0.6,0,1.3-0.5,1.4-1l3.7-19.8l16.2-0.1
	c2.5,0,4.7-0.2,6.4-0.5c1.8-0.4,3.4-1.1,4.7-2.2c1.3-1.1,2.3-2.5,2.9-4.3c0.7-1.6,1.3-3.9,1.9-6.5L344.3,302.4z M381.5,336.1
	l-25.6,0.1l2.1-10.9l12.2-0.1c0.7,0,1.3-0.5,1.4-1l2-10.5c0.1-0.4,0-0.8-0.3-1c-0.2-0.3-0.6-0.5-1-0.5l-11.8,0l1.1-5.7
	c0-0.4,0-0.8-0.3-1.1c-0.3-0.3-0.7-0.4-1.1-0.4h-10.6c-0.7,0-1.2,0.4-1.4,1.1l-7.9,41.7c-0.1,0.4,0,0.8,0.2,1
	c0.3,0.4,0.7,0.5,1.1,0.5l37.9-0.1c0.6,0,1.3-0.5,1.3-1.1l2-10.4c0.1-0.4-0.1-0.8-0.3-1.1C382.3,336.3,382,336.1,381.5,336.1
	 M350.7,301.5l38,0c0.6,0,1.2-0.5,1.4-1.1l2-10.4c0-0.4,0-0.8-0.3-1c-0.3-0.3-0.7-0.5-1.1-0.5l-37.8,0.2c-0.7,0-1.2,0.5-1.4,1.1
	l-2,10.3c-0.1,0.4,0.1,0.8,0.3,1.1C350,301.4,350.4,301.5,350.7,301.5 M438.8,288.3c-0.3-0.3-0.7-0.4-1.1-0.4l-9.7,0
	c-0.7,0-1.3,0.4-1.4,1.1l-6.7,35.7l-9.7-35.7c-0.1-0.7-0.7-1.1-1.3-1.1l-10.6,0.1c-0.8,0-1.3,0.4-1.4,1.1l-11.2,58.5
	c0,0.4,0.1,0.8,0.4,1.1c0.2,0.3,0.7,0.4,1,0.4h9.7c0.7,0,1.3-0.4,1.4-1.1l6-32.5l8.8,32.5c0.2,0.6,0.8,1,1.4,1h12.3
	c0.6,0,1.2-0.4,1.4-1.1l11.1-58.5C439.2,289.1,439.1,288.7,438.8,288.3 M484.5,296.2L484.5,296.2V296c0-1.4-0.2-2.7-0.7-3.8
	c-0.4-1.1-1.2-2-2.3-2.6c-2-1.1-4.9-1.6-8.8-1.6h-0.2l-27.9,0.2c-0.7,0-1.3,0.5-1.5,1.1l-2,10.4c-0.1,0.4,0,0.7,0.3,1.1
	c0.3,0.3,0.7,0.4,1.1,0.4l24.1-0.1h0.1c0.9,0,1.6,0,2.2,0.1c0.4,0.1,0.7,0.2,0.9,0.2l0,0l0.2,0.2c0,0.2,0.1,0.4,0.1,0.9v0
	c0,0.2,0,0.6-0.1,1.2c-0.1,0.5-0.2,1.1-0.3,1.8l0,0l-4.9,25.2c-0.3,1.4-0.6,2.5-0.8,3.3c-0.2,0.6-0.5,1-0.8,1.2v0
	c-0.2,0.2-0.5,0.3-1.2,0.4c-0.6,0.1-1.6,0.1-2.7,0.1l-11.7,0.1l5.7-29.6c0-0.4-0.1-0.8-0.3-1.1c-0.3-0.3-0.7-0.4-1.1-0.4l-10.6,0
	c-0.7,0-1.2,0.5-1.4,1l-8,41.7c-0.1,0.4,0.1,0.8,0.3,1.1c0.3,0.3,0.7,0.5,1.1,0.5l27.9-0.2c2.5,0,4.7-0.1,6.4-0.5
	c1.8-0.3,3.4-1.1,4.7-2.2c1.2-1.1,2.2-2.5,3-4.2c0.7-1.7,1.3-3.9,1.8-6.6l6.5-33.4C484.2,299.7,484.5,297.8,484.5,296.2
	 M521.1,335.6l-25.6,0.1l2.1-10.9h12.2c0.7,0,1.2-0.4,1.4-1.1l2-10.5c0.1-0.4,0-0.9-0.3-1.1c-0.2-0.3-0.6-0.5-1-0.5l-11.8,0.1
	l1.1-5.7c0.1-0.4-0.1-0.8-0.3-1.1c-0.3-0.3-0.7-0.5-1.1-0.5l-10.5,0.1c-0.7,0-1.3,0.4-1.4,1.1l-7.9,41.7c-0.1,0.4,0.1,0.7,0.3,1
	c0.3,0.4,0.7,0.5,1.1,0.5l37.8-0.2c0.7,0,1.3-0.4,1.4-1.1l2-10.4c0.1-0.4-0.1-0.8-0.4-1.1C521.9,335.8,521.6,335.6,521.1,335.6
	 M490.4,301l37.9-0.2c0.7,0,1.2-0.5,1.3-1.1l2-10.4c0.1-0.3-0.1-0.8-0.3-1.1c-0.3-0.3-0.6-0.4-1.1-0.4l-37.9,0.1
	c-0.6,0-1.2,0.5-1.4,1.2l-1.9,10.3c-0.1,0.4,0,0.8,0.3,1.1C489.6,300.8,490,301,490.4,301 M577.4,287.4l-9.7,0
	c-0.7,0-1.3,0.4-1.3,1.1l-6.7,35.7l-9.6-35.7c-0.2-0.6-0.8-1-1.4-1l-10.7,0.1c-0.6,0-1.2,0.4-1.3,1.1l-11.1,58.5
	c-0.1,0.4,0,0.7,0.4,1c0.2,0.4,0.6,0.5,1,0.5l9.7-0.1c0.7,0,1.3-0.5,1.4-1.1l5.9-32.6l8.8,32.7c0.3,0.6,0.8,1,1.4,1l12.3,0
	c0.7,0,1.3-0.4,1.4-1.1l11.1-58.5c0.1-0.4-0.1-0.8-0.3-1.1C578.1,287.5,577.8,287.3,577.4,287.4 M622,287.6
	c-0.2-0.3-0.6-0.4-1.1-0.4l-36.7,0.1c-0.8,0-1.3,0.4-1.4,1.1l-2,10.5c-0.1,0.4,0.1,0.8,0.3,1.1c0.3,0.3,0.7,0.4,1.2,0.4H593
	l-8.8,46.4c-0.1,0.4,0,0.8,0.3,1.1c0.2,0.3,0.7,0.5,1,0.5l10.6-0.1c0.7,0,1.3-0.5,1.3-1.1l9-46.9l12.4-0.1c0.7,0,1.3-0.5,1.4-1.1
	l2-10.5C622.4,288.3,622.4,288,622,287.6"/>
</svg>
