<?xml version="1.0" encoding="utf-8"?>
<!-- Generator: Adobe Illustrator 19.2.1, SVG Export Plug-In . SVG Version: 6.00 Build 0)  -->
<svg version="1.1" id="layer" xmlns="http://www.w3.org/2000/svg" xmlns:xlink="http://www.w3.org/1999/xlink" x="0px" y="0px"
	 viewBox="0 0 652 652" style="enable-background:new 0 0 652 652;" xml:space="preserve">
<style type="text/css">
	.st0{fill:#C22A05;}
	.st1{fill:#00377F;}
</style>
<polygon class="st0" points="276.5,347.2 316,303.7 278.8,303.7 278.8,286.4 341.9,286.4 341.9,302 301.4,346.3 343.3,346.3 
	343.3,363.7 276.5,363.7 "/>
<path class="st1" d="M80.9,339.2c0,17.3-8.9,26.1-27,26.1c-20.4,0-27-11.8-27-29v-3.4h18.9v7.1c0,5.1,2.8,7.9,7.8,7.9
	c4.6,0,7.2-2.6,7.2-10.1v-51.5h20.1V339.2z M102.9,363.7h62.5v-17.3H123v-14.7h37.8V316H123v-13.5h41.4v-16.1h-61.4V363.7z
	 M185,363.7h20.1v-28.1h15.2c9.4,0,10.7,8,11.2,15.8c0.2,2.2,0.5,9.7,2.3,12.3h19.9c-2.7-2.8-3-14.2-3.2-17.4
	c-0.6-7.4-3-16.6-11.2-18.5v-0.2c8.1-3.1,12.1-11,12.1-19.4c0-15.6-13.4-21.8-27-21.8H185V363.7z M205.1,302.5h16
	c5.6,0,10.2,2.6,10.2,8.3c0,5.8-3.2,9.1-9.3,9.1h-16.9V302.5z M368.5,363.7H431v-17.3h-42.4v-14.7h37.8V316h-37.8v-13.5h41.3v-16.1
	h-61.4V363.7z M450.6,363.7h62.5v-17.3h-42.4v-14.7h37.8V316h-37.8v-13.5H512v-16.1h-61.4V363.7z M528.2,337.7
	c0.1,19.8,15.8,27.6,33.5,27.6c17,0,33.6-6.3,33.6-25.9c0-14-11.2-19.2-22.4-22.3c-11.2-3.1-22.3-4.2-22.3-10.2
	c0-5.1,5.4-6.6,9.7-6.6c6.2,0,12.7,2.3,12.4,9.3h20.1c-0.1-17.4-15.5-24.9-30.9-24.9c-14.5,0-31.4,6.6-31.4,23.5
	c0,14.2,11.5,19.2,22.6,22.3c11.1,3.1,22.1,4.4,22.1,11.3c0,5.7-6.3,7.9-12.3,7.9c-8.5,0-14.1-2.9-14.6-12H528.2z M626.9,354.4
	c0-6.8-5.5-12.1-12.3-12.1c-7,0-12.5,5.3-12.5,12.1c0,6.8,5.5,12.2,12.5,12.2C621.4,366.6,626.9,361.2,626.9,354.4 M605.1,354.4
	c0-5.3,4.1-9.7,9.3-9.7c5.4,0,9.4,4.4,9.4,9.7c0,5.3-4,9.7-9.2,9.6C609.1,364.1,605.1,359.8,605.1,354.4 M612.5,355.9h1.3
	c1.6,0,2.3,0.6,2.5,1.8c0.4,1.5,0.6,2.5,1,2.9h2.9c-0.2-0.4-0.5-1.1-0.9-2.9c-0.4-1.6-1-2.6-2.1-3v-0.2c1.4-0.4,2.5-1.4,2.5-2.9
	c0-1.2-0.5-2.1-1.2-2.6c-0.8-0.6-1.8-1-4.1-1c-2,0-3.5,0.2-4.7,0.4v12.1h2.8V355.9z M612.6,350.4c0.3-0.1,0.8-0.1,1.5-0.1
	c1.8,0,2.6,0.7,2.6,1.8c0,1.3-1.3,1.8-2.8,1.8h-1.3V350.4z"/>
</svg>
