<svg xmlns="http://www.w3.org/2000/svg" version="1.1" xmlns:xlink="http://www.w3.org/1999/xlink" xmlns:svgjs="http://svgjs.dev/svgjs" viewBox="0 0 800 800" opacity="0.81"><defs><linearGradient x1="50%" y1="0%" x2="50%" y2="100%" id="ccchaos-grad"><stop stop-color="hsl(206, 75%, 49%)" stop-opacity="1" offset="0%"></stop><stop stop-color="hsl(331, 90%, 56%)" stop-opacity="1" offset="100%"></stop></linearGradient></defs><g stroke-width="2" stroke="url(#ccchaos-grad)" fill="none" stroke-linecap="round"><path d="M389.99 106.71C399.63 109.55 409.33 113.07 419.06 117.1 428.8 121.07 438.61 125.29 448.47 129.63 458.37 133.57 468.34 137.47 478.38 141.26 488.49 144.49 498.67 147.59 508.92 150.58 519.23 153.03 529.6 155.45 539.97 157.91 550.37 160.01 560.73 162.29 570.96 164.83 581.11 167.24 591.03 170.06 600.58 173.32 609.88 176.67 618.66 180.58 626.77 185.06 634.41 189.76 641.21 195.06 647.05 200.95 652.23 207.11 656.34 213.84 659.31 221.08 661.6 228.58 662.8 236.55 662.94 244.91 662.65 253.48 661.55 262.39 659.8 271.57 658.12 280.88 656.2 290.41 654.26 300.08 653.04 309.84 652.22 319.7 652 329.59 652.98 339.53 654.77 349.47 657.42 359.36 661.31 369.27 665.91 379.1 671.03 388.81 676.87 398.51 682.57 407.85 687.84 416.8 692.93 425.74 697.02 434.3 699.88 442.46 701.88 450.62 702.34 458.41 701.23 465.84 699 473.31 695.21 480.47 690 487.36 683.85 494.38 676.55 501.22 668.3 507.93 659.57 514.89 650.24 521.86 640.53 528.91 630.79 536.36 620.96 544.02 611.19 551.96 601.71 560.42 592.43 569.26 583.39 578.48 574.8 588.24 566.47 598.37 558.38 608.8 550.71 619.59 543.2 630.49 535.81 641.34 528.73 652.14 521.65 662.53 514.52 672.26 507.58 681.37 500.48 689.39 493.18 696.08 485.97 701.61 478.5 705.48 470.73 707.55 462.99 708.26 454.92 707.14 446.53 704.26 438.13 700.32 429.39 695.01 420.33 688.57 411.25 681.94 401.86 674.88 392.17 667.75 382.48 661.51 372.74 656 362.99 651.46 353.27 648.43 343.55 646.54 333.91 645.75 324.3 646.42 314.79 647.91 305.42 650.01 296.11 652.99 286.98 656.06 278.07 658.94 269.27 661.93 260.71 664.23 252.47 665.63 244.36 666.53 236.58 666.23 229.19 664.68 221.93 662.3 215.08 658.6 208.66 653.66 202.37 647.91 196.51 641.03 191.09 633.18 185.75 624.72 180.82 615.49 176.3 605.68 171.79 595.51 167.62 584.95 163.79 574.13 159.87 563.19 156.21 552.14 152.81 541.08 149.23 530.03 145.84 519.03 142.66 508.15 139.23 497.34 135.98 486.65 132.94 476.11 129.66 465.64 126.61 455.3 123.83 445.11 120.91 434.97 118.32 424.94 116.13 415.03 113.93 405.15 112.22 395.37 111.08 385.71 110.09 376.05 109.77 366.72 110.13 357.74 110.73 348.76 112.04 340.11 114.04 331.82 116.29 323.53 119.22 315.59 122.76 308.03 126.5 300.45 130.8 293.24 135.59 286.4 140.48 279.53 145.78 273 151.44 266.81 157.06 260.53 162.96 254.54 169.1 248.81 175.1 242.91 181.28 237.2 187.62 231.64 193.76 225.81 200.04 220.04 206.45 214.3 212.66 208.21 219.02 202.07 225.53 195.88 231.86 189.29 238.38 182.63 245.09 175.92 251.67 168.88 258.49 161.85 265.54 154.92 272.51 147.83 279.75 140.98 287.26 134.48 294.72 128.11 302.47 122.3 310.5 117.17 318.51 112.46 326.8 108.61 335.38 105.75 343.93 103.49 352.77 102.29 361.88 102.19 370.97 102.69 380.35 104.21 389.99 106.7" stroke-dasharray="2 0" transform="rotate(0, 400, 400)" opacity="0.05"></path><path d="M393.77 117.5C403.12 120.31 412.54 123.77 422.02 127.72 431.52 131.64 441.09 135.81 450.72 140.13 460.38 144.08 470.12 148.02 479.91 151.88 489.75 155.21 499.65 158.43 509.58 161.53 519.54 164.12 529.51 166.67 539.43 169.21 549.34 171.39 559.13 173.69 568.73 176.2 578.2 178.53 587.37 181.19 596.13 184.24 604.58 187.3 612.48 190.85 619.7 194.91 626.44 199.11 632.37 203.88 637.36 209.18 641.76 214.7 645.17 220.76 647.54 227.31 649.35 234.09 650.19 241.33 650.11 248.98 649.73 256.81 648.68 265 647.1 273.48 645.67 282.09 644.09 290.94 642.54 299.96 641.69 309.07 641.24 318.31 641.35 327.62 642.55 336.97 644.49 346.36 647.17 355.73 650.98 365.12 655.4 374.47 660.26 383.73 665.78 392.99 671.16 401.93 676.13 410.54 680.97 419.15 684.91 427.43 687.74 435.39 689.83 443.36 690.53 451.03 689.78 458.41 688.04 465.86 684.85 473.08 680.31 480.11 674.89 487.29 668.33 494.36 660.82 501.39 652.79 508.67 644.11 516.01 634.97 523.48 625.7 531.32 616.25 539.39 606.73 547.73 597.41 556.52 588.19 565.63 579.13 575.07 570.42 584.92 561.92 595.04 553.63 605.33 545.7 615.85 537.93 626.36 530.29 636.68 522.95 646.83 515.65 656.48 508.35 665.39 501.23 673.63 494.03 680.78 486.7 686.62 479.47 691.36 472.05 694.53 464.4 696.03 456.79 696.3 448.92 694.9 440.79 691.9 432.65 688 424.23 682.85 415.54 676.71 406.83 670.41 397.85 663.72 388.61 656.96 379.38 651.01 370.11 645.7 360.87 641.24 351.63 638.15 342.44 636.07 333.32 634.98 324.25 635.25 315.28 636.29 306.46 637.91 297.71 640.42 289.15 643.07 280.81 645.62 272.57 648.39 264.59 650.61 256.91 652.11 249.35 653.24 242.12 653.35 235.26 652.35 228.52 650.68 222.16 647.81 216.21 643.78 210.36 639.03 204.9 633.19 199.85 626.4 194.85 619.01 190.23 610.83 185.97 602 181.69 592.79 177.72 583.1 174.05 573.09 170.26 562.89 166.71 552.49 163.4 542 159.88 531.46 156.54 520.9 153.39 510.4 150 499.93 146.78 489.54 143.75 479.27 140.49 469.05 137.45 458.95 134.68 448.99 131.76 439.06 129.17 429.27 126.97 419.61 124.76 409.98 123.03 400.46 121.85 391.1 120.81 381.73 120.43 372.72 120.71 364.07 121.23 355.4 122.44 347.09 124.32 339.13 126.45 331.16 129.23 323.53 132.63 316.26 136.22 308.97 140.37 302.01 145.02 295.39 149.76 288.71 154.93 282.33 160.46 276.24 165.97 270.04 171.78 264.08 177.82 258.33 183.76 252.39 189.89 246.58 196.17 240.89 202.28 234.92 208.54 228.99 214.91 223.06 221.1 216.79 227.43 210.48 233.89 204.13 240.18 197.42 246.63 190.66 253.25 183.89 259.73 176.84 266.42 169.86 273.32 163.01 280.13 156.06 287.17 149.4 294.47 143.12 301.7 137.01 309.19 131.46 316.95 126.61 324.68 122.18 332.68 118.6 340.95 115.97 349.2 113.92 357.74 112.89 366.54 112.9 375.33 113.47 384.41 115.02 393.76 117.49" stroke-dasharray="7 11" transform="rotate(4.04, 400, 400)" opacity="0.09"></path><path d="M397.91 128.28C406.98 131.05 416.12 134.45 425.33 138.32 434.55 142.18 443.85 146.3 453.19 150.57 462.57 154.53 472.01 158.49 481.48 162.4 490.98 165.82 500.51 169.15 510.04 172.37 519.56 175.1 529.05 177.77 538.43 180.42 547.75 182.7 556.91 185.06 565.82 187.57 574.56 189.88 582.94 192.45 590.86 195.33 598.48 198.18 605.52 201.44 611.86 205.15 617.76 208.94 622.87 213.23 627.09 218.01 630.81 222.96 633.61 228.41 635.48 234.33 636.9 240.43 637.47 246.99 637.27 253.95 636.87 261.07 635.91 268.55 634.54 276.34 633.38 284.25 632.14 292.42 630.96 300.8 630.48 309.25 630.37 317.86 630.77 326.58 632.17 335.35 634.23 344.18 636.94 353.04 640.64 361.91 644.88 370.78 649.49 379.61 654.7 388.45 659.76 397.03 664.44 405.34 669.03 413.65 672.81 421.7 675.6 429.49 677.74 437.31 678.63 444.9 678.22 452.29 676.91 459.75 674.26 467.06 670.35 474.25 665.62 481.6 659.79 488.91 653.02 496.23 645.71 503.8 637.7 511.47 629.18 519.28 620.46 527.43 611.46 535.8 602.31 544.42 593.25 553.41 584.2 562.66 575.24 572.15 566.54 581.95 557.97 591.91 549.58 601.94 541.49 612.06 533.54 622.06 525.72 631.76 518.17 641.2 510.69 650.06 503.23 658.13 495.97 665.52 488.66 671.82 481.28 676.84 474.02 680.84 466.61 683.37 459.05 684.35 451.54 684.23 443.83 682.6 435.91 679.53 428 675.68 419.86 670.72 411.5 664.86 403.14 658.9 394.54 652.57 385.74 646.17 376.93 640.5 368.13 635.39 359.37 631.03 350.62 627.9 341.94 625.66 333.35 624.31 324.8 624.2 316.37 624.82 308.11 625.99 299.91 628.02 291.9 630.24 284.13 632.45 276.44 634.94 269.02 637.03 261.89 638.52 254.87 639.79 248.16 640.2 241.81 639.65 235.55 638.55 229.65 636.39 224.12 633.17 218.67 629.32 213.59 624.45 208.87 618.66 204.18 612.3 199.81 605.15 195.78 597.32 191.7 589.09 187.9 580.33 184.36 571.18 180.69 561.8 177.23 552.15 173.97 542.33 170.51 532.42 167.22 522.43 164.09 512.42 160.73 502.4 157.53 492.42 154.5 482.52 151.27 472.64 148.25 462.85 145.47 453.19 142.57 443.56 139.99 434.04 137.78 424.67 135.58 415.32 133.83 406.09 132.62 397.02 131.55 387.95 131.11 379.23 131.31 370.87 131.74 362.49 132.85 354.46 134.6 346.78 136.6 339.07 139.24 331.7 142.47 324.66 145.91 317.57 149.9 310.79 154.37 304.31 158.96 297.76 163.98 291.46 169.35 285.41 174.74 279.23 180.43 273.24 186.36 267.42 192.22 261.39 198.27 255.47 204.48 249.63 210.56 243.51 216.77 237.41 223.11 231.31 229.27 224.89 235.57 218.44 241.99 211.95 248.24 205.16 254.64 198.35 261.2 191.57 267.61 184.57 274.2 177.67 280.98 170.95 287.66 164.19 294.56 157.74 301.67 151.72 308.71 145.88 316 140.63 323.53 136.07 331.02 131.93 338.77 128.62 346.78 126.22 354.76 124.38 363.01 123.5 371.54 123.62 380.04 124.26 388.83 125.83 397.9 128.28" stroke-dasharray="4 1" transform="rotate(8.08, 400, 400)" opacity="0.13"></path><path d="M402.18 139.07C410.96 141.79 419.81 145.11 428.71 148.91 437.63 152.69 446.61 156.74 455.63 160.96 464.66 164.91 473.74 168.88 482.83 172.82 491.92 176.33 501.01 179.75 510.05 183.08 519.06 185.94 527.99 188.75 536.76 191.52 545.45 193.91 553.92 196.37 562.08 198.92 570.06 201.24 577.65 203.77 584.75 206.55 591.54 209.25 597.74 212.3 603.27 215.72 610.57 221.13 620.57 234.32 623.18 242.13 624.3 247.62 624.7 253.54 624.44 259.86 624.07 266.31 623.26 273.12 622.13 280.25 621.26 287.49 620.35 295 619.54 302.74 619.39 310.55 619.6 318.55 620.26 326.69 621.85 334.86 623.99 343.15 626.7 351.5 630.31 359.87 634.36 368.29 638.73 376.71 643.62 385.14 648.37 393.38 652.77 401.41 657.11 409.45 660.72 417.3 663.44 424.97 665.62 432.66 666.66 440.2 666.53 447.6 665.61 455.09 663.46 462.49 660.14 469.84 656.06 477.34 650.93 484.85 644.87 492.42 638.28 500.21 630.97 508.13 623.1 516.2 614.98 524.56 606.5 533.11 597.8 541.87 589.11 550.93 580.35 560.18 571.59 569.58 563 579.19 554.5 588.86 546.11 598.49 537.96 608.11 529.93 617.5 522.01 626.52 514.32 635.2 506.71 643.25 499.15 650.47 491.76 657.01 484.37 662.49 476.96 666.74 469.65 670.05 462.26 671.99 454.77 672.51 447.34 672.06 439.76 670.25 432.04 667.14 424.33 663.37 416.44 658.6 408.39 653.03 400.33 647.4 392.1 641.43 383.7 635.39 375.31 630 366.95 625.09 358.66 620.83 350.39 617.67 342.19 615.31 334.13 613.73 326.08 613.28 318.19 613.5 310.47 614.24 302.8 615.81 295.33 617.6 288.11 619.44 280.95 621.62 274.05 623.51 267.45 624.93 260.92 626.24 254.71 626.84 248.82 626.62 240.27 625.19 224.93 616.83 218.13 609.96 213.69 604.58 209.56 598.4 205.72 591.55 201.81 584.31 198.14 576.5 194.71 568.25 191.13 559.74 187.73 550.91 184.52 541.84 181.11 532.64 177.84 523.3 174.73 513.88 171.4 504.42 168.21 494.94 165.2 485.49 161.99 476.04 158.99 466.65 156.23 457.36 153.35 448.08 150.78 438.9 148.58 429.85 146.38 420.81 144.63 411.89 143.39 403.11 142.28 394.34 141.79 385.91 141.92 377.81 142.27 369.71 143.27 361.93 144.89 354.48 146.76 346.99 149.25 339.82 152.31 332.94 155.58 326.01 159.39 319.35 163.68 312.96 168.1 306.47 172.94 300.2 178.14 294.14 183.38 287.93 188.93 281.88 194.73 275.96 200.48 269.83 206.43 263.78 212.56 257.78 218.57 251.52 224.73 245.27 231.01 239.02 237.14 232.49 243.4 225.93 249.78 219.36 256 212.54 262.36 205.73 268.85 198.98 275.21 192.08 281.73 185.32 288.41 178.77 294.99 172.23 301.76 166.04 308.73 160.29 315.62 154.76 322.73 149.82 330.06 145.56 337.35 141.71 344.88 138.67 352.65 136.51 360.39 134.86 368.39 134.14 376.64 134.36 384.88 135.06 393.39 136.65 402.17 139.07" stroke-dasharray="1 7" transform="rotate(12.12, 400, 400)" opacity="0.16"></path><path d="M406.32 149.86C414.79 152.53 423.33 155.77 431.9 159.47 440.49 163.16 449.11 167.14 457.75 171.3 466.4 175.22 475.07 179.19 483.7 183.14 492.33 186.71 500.92 190.22 509.41 193.64 517.86 196.64 526.18 199.58 534.29 202.47 542.3 205 550.05 207.55 557.46 210.18 564.68 212.55 571.47 215.08 577.77 217.82 586.49 221.88 600.25 231.54 605.08 237.31 608.63 243.56 611.79 258.27 611.68 266.69 611.4 272.53 610.77 278.72 609.89 285.24 609.32 291.84 608.74 298.73 608.27 305.86 608.44 313.06 608.93 320.47 609.83 328.05 611.56 335.66 613.78 343.42 616.48 351.3 619.97 359.18 623.84 367.15 627.96 375.19 632.56 383.24 637.01 391.16 641.12 398.94 645.22 406.72 648.65 414.39 651.28 421.94 653.47 429.52 654.64 437.01 654.74 444.43 654.16 451.93 652.46 459.4 649.67 466.87 646.2 474.48 641.73 482.14 636.37 489.89 630.49 497.82 623.88 505.89 616.69 514.11 609.21 522.55 601.31 531.16 593.13 539.93 584.89 548.91 576.5 558.01 568.05 567.19 559.7 576.48 551.36 585.73 543.08 594.86 534.98 603.89 526.96 612.61 519.04 620.88 511.3 628.77 503.63 636 496.02 642.39 488.58 648.11 481.14 652.8 473.72 656.34 466.4 659.01 459.04 660.42 451.62 660.54 444.26 659.81 436.81 657.85 429.26 654.73 421.73 651.06 414.08 646.5 406.31 641.22 398.55 635.92 390.65 630.3 382.64 624.6 374.63 619.49 366.69 614.79 358.86 610.64 351.03 607.48 343.31 605.01 335.74 603.23 328.18 602.48 320.79 602.33 313.59 602.67 306.42 603.8 299.47 605.17 292.76 606.62 286.1 608.47 279.7 610.11 273.58 611.39 264.63 613.01 248.32 612.52 240.99 610.02 236.21 607.64 231.74 604.41 227.57 600.36 223.36 595.86 219.42 590.61 215.74 584.69 211.97 578.4 208.41 571.53 205.06 564.18 201.55 556.57 198.21 548.59 195.03 540.31 191.65 531.89 188.41 523.26 185.31 514.5 182 505.67 178.84 496.77 175.84 487.85 172.66 478.92 169.67 469.99 166.93 461.13 164.09 452.26 161.54 443.47 159.35 434.77 157.17 426.08 155.42 417.49 154.16 409.02 153.03 400.56 152.49 392.4 152.55 384.56 152.81 376.71 153.7 369.16 155.2 361.89 156.93 354.6 159.25 347.58 162.14 340.83 165.23 334.01 168.85 327.43 172.94 321.07 177.17 314.62 181.81 308.35 186.83 302.24 191.9 295.99 197.28 289.86 202.92 283.82 208.53 277.59 214.37 271.42 220.38 265.28 226.3 258.91 232.38 252.54 238.59 246.17 244.67 239.57 250.88 232.95 257.2 226.35 263.39 219.56 269.7 212.8 276.13 206.15 282.44 199.39 288.89 192.82 295.48 186.48 301.98 180.21 308.64 174.31 315.48 168.86 322.24 163.65 329.2 159.03 336.36 155.08 343.47 151.53 350.8 148.76 358.35 146.82 365.87 145.38 373.63 144.8 381.62 145.11 389.6 145.88 397.83 147.47 406.31 149.86" stroke-dasharray="7 4" transform="rotate(16.16, 400, 400)" opacity="0.20"></path><path d="M410.08 160.65C418.24 163.26 426.44 166.41 434.65 170 442.87 173.61 451.1 177.5 459.33 181.58 467.55 185.46 475.75 189.41 483.89 193.37 492.01 196.98 500.05 200.55 507.95 204.06 515.8 207.18 523.47 210.24 530.9 213.26 538.22 215.92 545.24 218.59 551.9 221.31 558.37 223.77 564.41 226.34 569.95 229.08 577.58 233.06 589.41 242.24 593.48 247.6 596.46 253.33 599.09 266.73 599.02 274.39 598.87 279.69 598.45 285.33 597.84 291.29 597.56 297.31 597.3 303.62 597.16 310.2 597.61 316.82 598.36 323.68 599.47 330.74 601.32 337.82 603.59 345.08 606.25 352.49 609.63 359.92 613.31 367.47 617.19 375.15 621.5 382.83 625.65 390.44 629.5 397.98 633.34 405.52 636.59 413.01 639.13 420.44 641.29 427.9 642.55 435.33 642.85 442.74 642.57 450.22 641.26 457.72 638.97 465.26 636.05 472.92 632.2 480.65 627.51 488.48 622.32 496.47 616.41 504.58 609.9 512.81 603.08 521.22 595.81 529.75 588.2 538.39 580.48 547.16 572.55 555.99 564.49 564.82 556.47 573.67 548.4 582.41 540.34 590.94 532.4 599.31 524.49 607.3 516.65 614.79 508.96 621.88 501.32 628.29 493.74 633.86 486.29 638.8 478.88 642.76 471.48 645.63 464.19 647.72 456.88 648.67 449.55 648.44 442.29 647.47 434.97 645.41 427.59 642.31 420.24 638.76 412.82 634.41 405.32 629.43 397.83 624.45 390.26 619.18 382.61 613.81 374.96 608.97 367.43 604.48 360.02 600.46 352.61 597.32 345.34 594.77 338.23 592.82 331.14 591.8 324.22 591.31 317.5 591.28 310.81 591.99 304.33 592.94 298.1 594.01 288.92 596.18 271.94 599.47 264.18 599.95 256.73 599.51 243.24 594.54 237.17 589.92 233.15 586.21 229.36 581.8 225.81 576.73 222.14 571.34 218.67 565.36 215.38 558.89 211.93 552.17 208.63 545.05 205.47 537.59 202.12 529.97 198.9 522.1 195.82 514.04 192.53 505.91 189.39 497.64 186.4 489.31 183.26 480.94 180.31 472.54 177.59 464.15 174.79 455.75 172.27 447.39 170.1 439.08 167.94 430.78 166.2 422.54 164.92 414.4 163.78 406.25 163.2 398.38 163.19 390.79 163.38 383.18 164.16 375.83 165.52 368.74 167.11 361.62 169.27 354.73 171.97 348.07 174.88 341.35 178.29 334.82 182.17 328.48 186.19 322.04 190.63 315.74 195.43 309.58 200.3 303.28 205.49 297.07 210.95 290.93 216.4 284.62 222.09 278.34 227.96 272.1 233.77 265.65 239.74 259.21 245.84 252.78 251.85 246.15 257.98 239.54 264.23 232.97 270.36 226.25 276.61 219.61 282.97 213.1 289.22 206.55 295.6 200.2 302.11 194.13 308.52 188.15 315.09 182.56 321.8 177.43 328.45 172.56 335.27 168.27 342.26 164.64 349.21 161.39 356.35 158.89 363.68 157.17 370.99 155.92 378.51 155.49 386.24 155.89 393.96 156.71 401.9 158.3 410.07 160.65" stroke-dasharray="7 11" transform="rotate(20.200000000000003, 400, 400)" opacity="0.24"></path><path d="M413.24 171.44C421.07 173.98 428.91 177.04 436.73 180.52 444.56 184.03 452.37 187.82 460.14 191.81 467.9 195.63 475.6 199.54 483.21 203.48 490.79 207.12 498.25 210.74 505.54 214.32 512.76 217.53 519.77 220.71 526.52 223.85 533.15 226.64 539.47 229.44 545.4 232.27 553.83 236.15 567.99 244.23 573.55 248.62 578.16 253.11 584.14 263.51 585.61 269.49 586.46 275.84 586.43 290.27 586 298.32 585.99 303.82 586.04 309.62 586.2 315.7 586.91 321.8 587.89 328.15 589.17 334.72 591.11 341.31 593.41 348.11 596.04 355.1 599.28 362.09 602.78 369.26 606.42 376.58 610.45 383.91 614.32 391.23 617.9 398.53 621.49 405.83 624.56 413.13 626.99 420.42 629.11 427.74 630.42 435.08 630.89 442.43 630.85 449.86 629.89 457.33 628.03 464.86 625.63 472.49 622.36 480.21 618.29 488.01 613.75 495.94 608.52 503.98 602.69 512.11 596.55 520.36 589.93 528.69 582.93 537.06 575.79 545.51 568.38 553.94 560.79 562.3 553.18 570.62 545.48 578.76 537.73 586.62 530.04 594.27 522.36 601.51 514.7 608.21 507.15 614.5 499.63 620.1 492.15 624.89 484.79 629.09 477.45 632.37 470.15 634.63 462.93 636.21 455.72 636.75 448.51 636.22 441.36 635.07 434.19 632.94 427 629.9 419.84 626.47 412.64 622.35 405.41 617.66 398.18 612.99 390.91 608.06 383.61 603.02 376.31 598.46 369.15 594.18 362.14 590.29 355.13 587.18 348.28 584.57 341.6 582.48 334.94 581.23 328.46 580.45 322.18 580.07 315.92 580.38 309.88 580.94 304.08 581.64 295.52 583.28 279.68 585.99 272.42 586.48 265.42 586.29 252.66 582.5 246.85 578.75 241.16 573.88 230.59 560.59 225.64 552.39 222.24 546.52 218.97 540.23 215.83 533.57 212.51 526.76 209.3 519.66 206.23 512.33 202.98 504.91 199.86 497.32 196.9 489.6 193.8 481.85 190.89 474.01 188.2 466.14 185.45 458.25 182.97 450.35 180.83 442.47 178.7 434.58 176.97 426.72 175.69 418.92 174.54 411.1 173.92 403.52 173.84 396.17 173.95 388.81 174.63 381.67 175.86 374.74 177.31 367.78 179.3 361.02 181.81 354.44 184.52 347.8 187.72 341.32 191.37 334.98 195.17 328.56 199.38 322.25 203.95 316.04 208.61 309.7 213.59 303.43 218.83 297.22 224.1 290.86 229.6 284.52 235.3 278.21 240.96 271.74 246.79 265.28 252.76 258.85 258.66 252.26 264.69 245.71 270.83 239.23 276.88 232.66 283.05 226.19 289.32 219.88 295.49 213.57 301.79 207.5 308.2 201.72 314.53 196.08 320.99 190.82 327.57 186.04 334.1 181.52 340.78 177.57 347.61 174.25 354.39 171.3 361.34 169.06 368.46 167.57 375.56 166.5 382.84 166.2 390.3 166.68 397.75 167.55 405.4 169.14 413.23 171.44" stroke-dasharray="3 6" transform="rotate(24.24, 400, 400)" opacity="0.28"></path><path d="M415.61 182.23C423.09 184.7 430.55 187.66 437.96 191.02 445.37 194.42 452.74 198.1 460.02 201.98 467.3 205.73 474.48 209.58 481.54 213.49 488.56 217.13 495.42 220.78 502.09 224.4 508.69 227.71 515.05 230.98 521.13 234.22 527.1 237.14 532.73 240.07 538 243.01 545.44 247.05 557.8 255.3 562.59 259.66 569.16 269.01 573.96 285.46 574.19 291.96 574.4 298.78 574.79 313.95 575.39 322.25 576.34 327.89 577.5 333.79 578.93 339.93 580.94 346.07 583.25 352.45 585.82 359.03 588.93 365.62 592.24 372.42 595.65 379.41 599.41 386.4 603 393.43 606.32 400.47 609.67 407.53 612.54 414.63 614.85 421.75 616.91 428.9 618.26 436.1 618.85 443.35 619.01 450.65 618.36 458.02 616.88 465.46 614.94 472.97 612.19 480.57 608.71 488.25 604.79 496.02 600.21 503.86 595.05 511.76 589.57 519.74 583.61 527.74 577.25 535.74 570.72 543.74 563.88 551.68 556.82 559.48 549.71 567.19 542.44 574.66 535.09 581.81 527.75 588.72 520.37 595.18 512.99 601.09 505.67 606.59 498.35 611.42 491.07 615.48 483.87 618.99 476.68 621.64 469.53 623.36 462.45 624.49 455.39 624.67 448.35 623.9 441.35 622.6 434.36 620.44 427.38 617.48 420.42 614.2 413.45 610.31 406.49 605.91 399.53 601.56 392.56 596.95 385.59 592.23 378.62 587.94 371.81 583.87 365.18 580.13 358.54 577.07 352.07 574.43 345.8 572.23 339.53 570.77 333.44 569.73 327.57 569.04 318.88 569.08 302.62 570.62 295.08 571.59 287.77 572.63 274.33 572.94 268.17 571.87 262.17 569.99 251.06 562.95 245.9 557.81 242.39 553.95 239.03 549.56 235.82 544.69 232.45 539.61 229.2 534.11 226.08 528.23 222.79 522.2 219.6 515.85 216.55 509.25 213.33 502.55 210.25 495.63 207.32 488.56 204.27 481.44 201.41 474.19 198.77 466.86 196.07 459.51 193.64 452.1 191.53 444.66 189.44 437.22 187.74 429.76 186.46 422.31 185.3 414.85 184.65 407.57 184.51 400.48 184.56 393.37 185.13 386.44 186.23 379.68 187.53 372.89 189.36 366.25 191.67 359.76 194.18 353.21 197.16 346.79 200.58 340.47 204.14 334.08 208.11 327.78 212.43 321.55 216.85 315.21 221.59 308.92 226.6 302.68 231.65 296.31 236.93 289.97 242.42 283.65 247.9 277.21 253.56 270.79 259.36 264.42 265.12 257.94 271.01 251.52 277.02 245.19 282.95 238.82 289 232.58 295.15 226.52 301.23 220.51 307.42 214.75 313.7 209.31 319.92 204.01 326.26 199.12 332.71 194.69 339.1 190.53 345.63 186.92 352.28 183.92 358.89 181.27 365.65 179.28 372.54 178 379.42 177.12 386.45 176.94 393.62 177.5 400.79 178.4 408.12 179.99 415.6 182.23" stroke-dasharray="2 10" transform="rotate(28.28, 400, 400)" opacity="0.32"></path><path d="M417.06 193.02C424.17 195.41 431.22 198.26 438.21 201.5 445.18 204.78 452.08 208.34 458.87 212.11 465.65 215.76 472.3 219.54 478.8 223.39 485.25 227.02 491.53 230.67 497.59 234.32 503.58 237.68 509.32 241.03 514.76 244.36 522.61 248.92 536.32 257.7 542.06 262.04 550.94 270.56 559.39 284.54 560.66 289.89 561.63 295.43 562.61 307.88 562.94 314.78 563.76 321.97 566.54 337.68 568.75 346.18 570.81 351.92 573.1 357.91 575.61 364.13 578.58 370.34 581.7 376.79 584.88 383.45 588.37 390.12 591.7 396.85 594.77 403.64 597.88 410.44 600.56 417.3 602.73 424.21 604.72 431.16 606.07 438.17 606.75 445.24 607.08 452.35 606.68 459.54 605.54 466.8 604 474.11 601.73 481.5 598.78 488.94 595.44 496.43 591.48 503.98 586.95 511.54 582.13 519.13 576.82 526.7 571.11 534.22 565.2 541.7 558.97 549.06 552.49 556.23 545.91 563.27 539.15 570.03 532.26 576.44 525.36 582.59 518.37 588.27 511.34 593.41 504.34 598.16 497.32 602.25 490.3 605.62 483.34 608.5 476.38 610.59 469.46 611.84 462.58 612.56 455.72 612.45 448.89 611.49 442.1 610.09 435.32 607.93 428.57 605.06 421.84 601.95 415.12 598.3 408.43 594.19 401.74 590.14 395.07 585.85 388.42 581.44 381.77 577.41 375.3 573.56 369.02 569.97 362.73 566.98 356.62 564.33 350.71 562.05 341.93 559.79 325.39 557.73 317.65 557.63 310.12 558.23 296.12 559.45 289.66 559.66 283.36 559.58 271.69 557.17 266.27 554.65 260.89 551.37 250.72 541.94 245.87 535.88 242.54 531.52 239.31 526.73 236.21 521.57 232.94 516.28 229.79 510.66 226.76 504.75 223.59 498.75 220.55 492.51 217.67 486.07 214.67 479.59 211.87 472.93 209.28 466.16 206.65 459.36 204.27 452.46 202.21 445.48 200.17 438.5 198.5 431.46 197.23 424.37 196.07 417.29 195.39 410.33 195.2 403.5 195.17 396.67 195.65 389.96 196.62 383.38 197.78 376.78 199.44 370.28 201.56 363.9 203.86 357.47 206.61 351.13 209.78 344.87 213.11 338.54 216.81 332.28 220.87 326.07 225.03 319.77 229.5 313.52 234.25 307.3 239.06 300.98 244.1 294.7 249.35 288.44 254.62 282.1 260.06 275.8 265.66 269.55 271.24 263.24 276.95 257.02 282.78 250.91 288.57 244.79 294.46 238.83 300.46 233.08 306.4 227.39 312.44 221.98 318.58 216.9 324.66 211.98 330.85 207.47 337.13 203.41 343.37 199.61 349.72 196.34 356.17 193.65 362.6 191.3 369.14 189.56 375.79 188.49 382.43 187.77 389.19 187.71 396.07 188.33 402.94 189.27 409.94 190.84 417.05 193.02" stroke-dasharray="0 6" transform="rotate(32.32, 400, 400)" opacity="0.35"></path><path d="M417.49 203.81C424.21 206.11 430.85 208.86 437.39 211.96 443.92 215.11 450.34 218.54 456.63 222.18 462.9 225.73 469.02 229.41 474.97 233.19 480.88 236.77 486.58 240.41 492.06 244.05 500.05 249.15 514.47 258.95 520.79 263.66 526.58 268.05 536.07 276.79 539.72 281.26 544.97 290.38 549.52 305.58 550.22 311.36 551.05 317.35 552.92 330.56 554.22 337.8 556.26 345.28 561.84 361.47 565.39 370.16 568.22 376.03 571.15 382.14 574.12 388.48 577.35 394.83 580.41 401.26 583.24 407.77 586.11 414.28 588.59 420.88 590.63 427.54 592.53 434.23 593.86 440.99 594.6 447.82 595.06 454.68 594.86 461.61 594.02 468.59 592.83 475.61 590.98 482.69 588.51 489.79 585.71 496.92 582.32 504.06 578.39 511.18 574.19 518.3 569.52 525.35 564.45 532.31 559.18 539.19 553.57 545.91 547.68 552.4 541.69 558.74 535.48 564.77 529.11 570.43 522.69 575.82 516.16 580.76 509.55 585.15 502.95 589.18 496.3 592.6 489.63 595.34 482.98 597.65 476.33 599.24 469.69 600.07 463.08 600.46 456.48 600.1 449.92 599 443.38 597.54 436.86 595.41 430.37 592.66 423.9 589.72 417.46 586.31 411.05 582.49 404.65 578.73 398.28 574.75 391.94 570.65 385.61 566.88 379.46 563.25 373.51 559.82 367.54 556.91 361.77 554.27 356.19 551.94 347.91 549.46 332.32 546.61 325.02 546.03 317.9 546.12 304.63 546.52 298.47 546.47 286.79 545.21 270.61 539.26 265.62 535.6 260.58 531.28 250.88 520.27 246.2 513.69 242.97 509.06 239.85 504.11 236.86 498.85 233.74 493.52 230.76 487.92 227.93 482.1 225.01 476.24 222.27 470.17 219.75 463.95 217.19 457.7 214.88 451.31 212.87 444.81 210.89 438.3 209.25 431.69 208 424.99 206.85 418.29 206.15 411.67 205.91 405.14 205.82 398.6 206.2 392.14 207.04 385.76 208.06 379.37 209.55 373.05 211.47 366.81 213.57 360.53 216.09 354.31 219.01 348.14 222.08 341.93 225.52 335.76 229.29 329.63 233.18 323.43 237.37 317.27 241.84 311.14 246.37 304.94 251.14 298.78 256.13 292.66 261.14 286.48 266.34 280.36 271.7 274.31 277.05 268.24 282.55 262.27 288.16 256.43 293.75 250.62 299.46 244.99 305.26 239.59 311.02 234.28 316.89 229.24 322.83 224.55 328.75 220.02 334.75 215.89 340.83 212.21 346.89 208.78 353.03 205.85 359.26 203.47 365.47 201.39 371.77 199.9 378.16 199.02 384.53 198.46 391.01 198.51 397.56 199.19 404.12 200.15 410.76 201.69 417.48 203.81" stroke-dasharray="4 1" transform="rotate(36.36, 400, 400)" opacity="0.39"></path><path d="M416.88 214.6C423.2 216.81 429.41 219.44 435.49 222.4 441.57 225.42 447.52 228.7 453.31 232.19 464.85 238.95 475.67 246.18 485.58 253.6 495.28 260.2 503.9 266.85 511.23 273.51 518.22 279.32 523.86 285.33 528.05 291.61 532.02 297.33 534.75 303.62 536.37 310.55 538.31 317.22 539.69 324.74 540.79 333.13 543.02 341.43 545.56 350.69 548.55 360.88 550.63 365.96 552.85 371.28 555.18 376.84 557.86 382.39 560.6 388.18 563.35 394.2 566.33 400.22 569.14 406.34 571.73 412.54 574.37 418.75 576.66 425.05 578.56 431.41 581.97 444.19 583.27 457.28 582.34 470.53 580.26 483.83 575.85 497.24 569.38 510.47 561.91 523.55 552.75 536.17 542.34 547.9 531.44 558.96 519.69 568.6 507.47 576.31 495.17 582.72 482.6 586.75 470 588.09 457.47 587.97 444.94 585.31 432.55 580.27 426.38 577.52 420.23 574.34 414.13 570.81 408.03 567.34 401.96 563.66 395.94 559.86 389.93 556.35 384.09 552.93 378.45 549.67 372.8 546.86 367.33 544.26 362.06 541.91 351.48 538.7 341.63 536.37 332.57 534.7 323.4 534.5 314.96 534.25 307.24 533.54 299.32 533.28 292.02 531.9 285.32 529.17 278.25 526.19 271.63 521.61 265.49 515.47 258.85 508.93 252.6 500.92 246.84 491.67 240.64 482.15 235 471.6 230.16 460.24 227.69 454.54 225.46 448.65 223.51 442.62 221.59 436.59 220 430.41 218.77 424.12 217.63 417.82 216.92 411.56 216.63 405.34 216.48 399.12 216.77 392.93 217.5 386.8 219.43 374.5 223.09 362.32 228.27 350.34 234.02 338.21 241.14 326.16 249.38 314.27 257.92 302.22 267.37 290.32 277.51 278.78 287.7 267.24 298.45 256.24 309.59 246.11 320.65 236.41 332.1 227.95 343.81 221.11 355.45 215.22 367.41 211.29 379.61 209.6 385.7 209.18 391.85 209.34 398.07 210.06 404.28 211.04 410.56 212.55 416.87 214.6" stroke-dasharray="9 9" transform="rotate(40.400000000000006, 400, 400)" opacity="0.43"></path><path d="M415.27 225.39C427.07 229.74 438.36 235.47 448.99 242.16 459.56 248.67 469.38 255.7 478.29 262.97 487.02 269.56 494.71 276.27 501.22 283.01 507.49 289 512.55 295.16 516.38 301.55 520.11 307.4 522.81 313.71 524.61 320.55 526.79 327.1 528.53 334.38 530.06 342.42 532.62 350.33 535.41 359.12 538.52 368.76 542.96 378.36 547.74 388.86 552.58 400.26 558.21 411.65 562.97 423.44 566.51 435.48 569.73 447.55 571.11 459.88 570.52 472.29 569 484.69 565.4 497.08 559.92 509.17 553.56 521.04 545.6 532.33 536.39 542.64 526.69 552.28 516.09 560.5 504.92 566.9 493.6 572.14 481.94 575.22 470.15 575.91 458.39 575.41 446.57 572.69 434.85 567.91 423.18 562.73 411.58 556.29 400.18 549.07 388.79 542.86 378.09 537.04 368.12 531.93 358.1 528.52 348.76 525.81 340.14 523.66 331.41 522.85 323.32 522.04 315.89 520.92 308.23 520.33 301.12 518.85 294.54 516.28 287.61 513.63 281.09 509.61 275.01 504.23 268.49 498.57 262.35 491.56 256.7 483.35 250.67 474.94 245.21 465.47 240.53 455.14 235.77 444.73 232.01 433.58 229.53 421.82 227.41 410.05 226.91 398.26 227.99 386.55 229.64 374.82 232.9 363.12 237.59 351.54 242.8 339.87 249.32 328.26 256.92 316.81 264.83 305.29 273.65 293.97 283.16 283.05 292.76 272.24 302.94 262.02 313.51 252.69 324.06 243.84 334.98 236.21 346.13 230.13 357.25 224.93 368.64 221.56 380.19 220.23 391.73 219.92 403.46 221.64 415.26 225.39" stroke-dasharray="10 8" transform="rotate(44.44, 400, 400)" opacity="0.47"></path><path d="M412.75 236.18C423.7 240.32 434.09 245.74 443.79 252.08 453.44 258.31 462.34 265.09 470.34 272.16 478.21 278.68 485.11 285.36 490.94 292.12 496.62 298.24 501.25 304.52 504.83 310.99 508.42 316.96 511.15 323.31 513.16 330.09 515.59 336.58 517.67 343.68 519.56 351.43 522.38 359.04 525.35 367.42 528.54 376.56 532.85 385.65 537.35 395.57 541.81 406.3 546.95 417.03 551.27 428.11 554.5 439.37 557.5 450.66 558.9 462.12 558.58 473.57 557.52 484.97 554.62 496.24 550.04 507.11 544.7 517.71 537.86 527.64 529.81 536.56 521.29 544.83 511.85 551.74 501.77 556.93 491.51 561.14 480.82 563.4 469.93 563.56 459.03 562.78 448 560.06 437.02 555.56 426.07 550.8 415.16 544.91 404.41 538.28 393.67 532.52 383.57 527.01 374.13 522.02 364.65 518.46 355.79 515.45 347.57 512.9 339.24 511.54 331.47 510.22 324.27 508.68 316.87 507.71 309.93 506.05 303.47 503.52 296.69 501.03 290.29 497.4 284.3 492.59 277.93 487.61 271.93 481.43 266.42 474.12 260.6 466.67 255.35 458.18 250.85 448.81 246.3 439.37 242.7 429.14 240.3 418.21 238.22 407.29 237.64 396.22 238.51 385.15 239.9 374.07 242.76 362.95 246.96 351.89 251.64 340.8 257.55 329.76 264.49 318.9 271.74 308.03 279.88 297.41 288.7 287.23 297.65 277.23 307.18 267.86 317.1 259.39 327.05 251.41 337.35 244.61 347.87 239.28 358.39 234.75 369.13 231.9 379.98 230.92 390.83 230.83 401.8 232.58 412.75 236.18" stroke-dasharray="10 4" transform="rotate(48.48, 400, 400)" opacity="0.51"></path><path d="M409.47 246.97C419.56 250.88 429.07 255.99 437.9 261.96 446.68 267.88 454.72 274.36 461.93 281.17 469.04 287.56 475.27 294.15 480.56 300.86 485.76 307.03 490.08 313.37 493.5 319.88 497.02 325.94 499.84 332.31 502.06 339.04 504.72 345.49 507.08 352.44 509.29 359.94 512.29 367.29 515.39 375.3 518.6 383.96 522.73 392.58 526.95 401.92 531.04 411.96 535.71 422.01 539.6 432.32 542.51 442.75 545.29 453.18 546.66 463.7 546.55 474.1 545.86 484.43 543.56 494.52 539.75 504.12 535.32 513.44 529.52 522.04 522.57 529.62 515.19 536.61 506.88 542.31 497.91 546.43 488.74 549.73 479.07 551.32 469.14 551.07 459.16 550.08 448.99 547.43 438.81 543.25 428.63 538.9 418.45 533.54 408.38 527.49 398.31 522.18 388.81 516.99 379.9 512.16 370.95 508.53 362.53 505.3 354.69 502.42 346.73 500.6 339.27 498.8 332.31 496.86 325.15 495.5 318.4 493.6 312.08 491 305.47 488.55 299.21 485.16 293.34 480.77 287.16 476.3 281.35 470.78 276.01 464.24 270.44 457.59 265.42 449.98 261.12 441.49 256.81 432.95 253.38 423.6 251.07 413.53 249.04 403.46 248.4 393.17 249.08 382.8 250.21 372.44 252.7 361.99 256.41 351.59 260.56 341.19 265.86 330.84 272.12 320.69 278.7 310.59 286.12 300.77 294.2 291.43 302.45 282.31 311.26 273.84 320.46 266.26 329.73 259.17 339.34 253.19 349.15 248.58 358.98 244.69 369.01 242.33 379.1 241.67 389.21 241.77 399.38 243.53 409.47 246.97" stroke-dasharray="9 7" transform="rotate(52.52, 400, 400)" opacity="0.54"></path><path d="M405.63 257.76C414.86 261.43 423.52 266.2 431.52 271.79 439.49 277.36 446.77 283.5 453.28 290.01 459.73 296.19 465.4 302.62 470.25 309.2 475.09 315.34 479.17 321.67 482.51 328.14 485.99 334.24 488.91 340.6 491.35 347.25 494.19 353.65 496.79 360.46 499.23 367.7 502.36 374.81 505.52 382.47 508.69 390.66 512.62 398.82 516.55 407.57 520.27 416.92 524.48 426.26 527.97 435.77 530.57 445.31 533.1 454.83 534.41 464.34 534.44 473.65 534.04 482.87 532.24 491.76 529.11 500.1 525.48 508.17 520.61 515.49 514.67 521.82 508.36 527.64 501.15 532.25 493.26 535.44 485.18 537.98 476.56 539.01 467.61 538.46 458.6 537.35 449.34 534.81 439.99 530.96 430.63 527.03 421.22 522.19 411.85 516.7 402.48 511.84 393.58 506.98 385.2 502.35 376.78 498.72 368.81 495.34 361.34 492.23 353.77 490.01 346.61 487.82 339.88 485.52 332.99 483.77 326.45 481.6 320.3 478.89 313.9 476.38 307.83 473.11 302.13 469.01 296.18 464.91 290.59 459.89 285.48 453.99 280.18 448.02 275.42 441.16 271.35 433.48 267.28 425.77 264.05 417.26 261.84 408.04 259.88 398.82 259.18 389.34 259.69 379.75 260.59 370.17 262.71 360.49 265.96 350.85 269.59 341.24 274.27 331.69 279.86 322.36 285.74 313.12 292.42 304.19 299.74 295.76 307.23 287.57 315.27 280.02 323.7 273.35 332.21 267.13 341.06 261.96 350.1 258.04 359.19 254.76 368.44 252.86 377.73 252.48 387.05 252.74 396.39 254.5 405.63 257.76" stroke-dasharray="7 9" transform="rotate(56.56, 400, 400)" opacity="0.58"></path><path d="M401.45 268.55C409.83 271.97 417.67 276.39 424.91 281.58 432.12 286.78 438.7 292.54 444.61 298.68 450.48 304.59 455.69 310.78 460.19 317.15 464.72 323.18 468.63 329.4 471.94 335.77 475.4 341.83 478.41 348.12 481.02 354.63 484.01 360.93 486.78 367.57 489.39 374.54 492.57 381.41 495.72 388.7 498.81 396.41 502.52 404.09 506.14 412.25 509.51 420.87 513.27 429.48 516.37 438.15 518.67 446.76 520.94 455.35 522.16 463.83 522.28 472.03 522.09 480.13 520.69 487.84 518.15 494.97 515.2 501.85 511.15 507.98 506.14 513.17 500.81 517.93 494.63 521.6 487.78 524.01 480.75 525.91 473.17 526.51 465.21 525.75 457.18 524.59 448.85 522.21 440.37 518.71 431.87 515.18 423.25 510.86 414.61 505.91 405.97 501.48 397.7 496.99 389.86 492.6 381.98 489.01 374.49 485.58 367.39 482.31 360.22 479.79 353.39 477.27 346.94 474.67 340.34 472.56 334.05 470.14 328.11 467.29 321.98 464.67 316.14 461.44 310.66 457.53 304.99 453.68 299.67 449.06 294.81 443.67 289.82 438.26 285.35 432.07 281.53 425.12 277.73 418.15 274.7 410.45 272.61 402.07 270.73 393.69 269.99 385.05 270.34 376.3 271.02 367.56 272.81 358.72 275.6 349.93 278.73 341.18 282.82 332.52 287.74 324.09 292.92 315.79 298.85 307.8 305.39 300.32 312.1 293.09 319.33 286.49 326.94 280.71 334.65 275.34 342.68 270.94 350.91 267.69 359.18 264.97 367.61 263.48 376.08 263.35 384.57 263.75 393.07 265.48 401.45 268.55" stroke-dasharray="4 3" transform="rotate(60.599999999999994, 400, 400)" opacity="0.62"></path><path d="M397.19 279.34C404.73 282.5 411.79 286.56 418.31 291.32 424.81 296.12 430.77 301.47 436.14 307.2 441.51 312.77 446.31 318.64 450.54 324.71 454.81 330.54 458.58 336.57 461.85 342.73 465.29 348.66 468.37 354.8 471.11 361.11 474.17 367.25 477.04 373.66 479.74 380.32 482.91 386.89 486 393.79 488.96 401 492.41 408.18 495.72 415.72 498.74 423.58 502.08 431.44 504.8 439.26 506.81 446.93 508.82 454.58 509.93 462.02 510.1 469.14 510.06 476.15 508.98 482.73 506.91 488.72 502.88 497.02 489.96 509 481.47 512.2 475.44 513.58 468.86 513.85 461.87 512.98 454.82 511.83 447.43 509.65 439.82 506.5 432.2 503.38 424.4 499.54 416.51 495.12 408.62 491.13 401.01 487 393.73 482.88 386.42 479.41 379.42 475.99 372.74 472.65 366 469.93 359.54 467.17 353.4 464.34 347.15 461.95 341.17 459.29 335.49 456.31 329.67 453.56 324.13 450.33 318.92 446.56 313.58 442.88 308.58 438.56 304.02 433.61 299.37 428.66 295.21 423.03 291.66 416.76 288.15 410.47 285.34 403.53 283.38 395.98 281.6 388.43 280.84 380.65 281.05 372.76 281.53 364.9 283 356.96 285.37 349.08 288.01 341.26 291.53 333.54 295.79 326.08 300.29 318.74 305.47 311.74 311.22 305.23 317.13 298.96 323.54 293.28 330.31 288.38 337.17 283.83 344.36 280.16 351.73 277.51 359.16 275.31 366.74 274.2 374.35 274.28 381.99 274.79 389.64 276.47 397.19 279.34" stroke-dasharray="4 1" transform="rotate(64.64, 400, 400)" opacity="0.66"></path><path d="M393.09 290.13C399.81 293.02 406.12 296.71 411.97 301.03 417.81 305.41 423.19 310.3 428.09 315.57 432.99 320.74 437.44 326.23 441.41 331.92 445.45 337.45 449.08 343.18 452.31 349.05 455.7 354.75 458.79 360.63 461.6 366.66 464.68 372.55 467.57 378.66 470.29 384.94 473.37 391.15 476.34 397.6 479.14 404.27 482.31 410.91 485.29 417.8 487.97 424.89 490.91 431.98 493.27 438.93 495 445.66 496.75 452.37 497.73 458.82 497.91 464.89 497.53 473.64 492.2 488.17 487.37 493.53 481.51 497.69 466.42 501.06 457.56 500.17 451.45 499.07 444.97 497.11 438.25 494.34 431.5 491.6 424.53 488.24 417.42 484.33 410.3 480.77 403.38 477.02 396.7 473.21 390.01 469.9 383.53 466.57 377.32 463.25 371.06 460.41 365.02 457.52 359.26 454.54 353.4 451.93 347.78 449.11 342.44 446.03 336.99 443.18 331.8 439.93 326.93 436.28 321.96 432.71 317.32 428.65 313.1 424.07 308.83 419.51 305.01 414.39 301.76 408.74 298.55 403.07 295.97 396.86 294.14 390.13 292.48 383.39 291.71 376.47 291.8 369.48 292.11 362.52 293.29 355.51 295.26 348.58 297.45 341.71 300.42 334.97 304.06 328.5 307.89 322.14 312.34 316.13 317.31 310.58 322.43 305.25 328 300.47 333.92 296.4 339.94 292.62 346.25 289.63 352.76 287.54 359.31 285.81 366.02 285.03 372.78 285.27 379.56 285.87 386.36 287.48 393.09 290.13" stroke-dasharray="10 6" transform="rotate(68.68, 400, 400)" opacity="0.70"></path><path d="M389.4 300.91C401.25 306.29 411.75 314.27 420.63 323.81 429.59 333.17 437.18 343.69 443.36 354.75 450.08 365.34 455.98 376.65 461.01 388.36 467.16 399.87 472.75 412.11 477.21 424.71 482.44 437.31 485.35 449.06 485.74 459.32 485.78 469.31 482.85 477.35 477.25 482.7 471.12 487.34 462.57 488.98 452.29 487.34 441.81 485.29 429.94 480.56 417.3 473.54 404.65 467.58 392.44 460.88 381.08 454.08 369.6 448.77 358.76 442.95 348.95 436.52 338.87 430.86 329.72 423.83 322.07 415.32 314.34 406.95 308.35 396.74 304.91 384.86 301.99 372.99 302.25 360.64 305.28 348.66 309.03 336.9 315.41 325.85 323.73 316.46 332.52 307.76 342.92 301.25 354.16 297.77 365.56 295.41 377.55 296.34 389.4 300.91" stroke-dasharray="4 5" transform="rotate(72.72, 400, 400)" opacity="0.73"></path><path d="M386.35 311.7C396.63 316.47 405.9 323.5 413.91 331.94 422.01 340.33 429.06 349.84 435 359.87 441.38 369.63 447.05 380.01 451.89 390.62 457.55 401.11 462.57 412.06 466.44 423.06 470.89 434.06 473.31 444.04 473.59 452.5 473.71 460.77 471.35 467.21 466.76 471.32 461.82 474.95 454.77 476.09 446.13 474.53 437.33 472.77 427.18 468.76 416.14 462.76 405.11 457.54 394.27 451.48 384.05 445.14 373.77 439.9 363.97 434.11 355.07 427.81 346.01 422.14 337.78 415.4 330.94 407.58 324.08 399.9 318.77 390.82 315.68 380.5 313 370.17 313.04 359.64 315.45 349.56 318.41 339.67 323.62 330.55 330.53 322.94 337.81 315.89 346.54 310.76 356.09 308.21 365.77 306.51 376.06 307.57 386.35 311.7" stroke-dasharray="0 2" transform="rotate(76.76, 400, 400)" opacity="0.77"></path><path d="M384.1 322.49C392.87 326.62 400.93 332.68 408.05 339.98 415.25 347.29 421.69 355.65 427.24 364.49 433.13 373.2 438.42 382.43 442.91 391.8 447.98 401.1 452.38 410.66 455.67 420.05 459.38 429.43 461.33 437.73 461.51 444.59 460.67 453.86 449.19 462.75 439.2 461.76 431.95 460.31 423.45 457 414.03 451.97 404.61 447.5 395.22 442.16 386.27 436.41 377.29 431.44 368.66 425.89 360.81 419.91 352.87 414.41 345.68 408.09 339.7 401.01 333.76 394.06 329.16 386.09 326.45 377.29 324.05 368.48 323.92 359.7 325.77 351.46 328.02 343.36 332.15 336.03 337.75 330.07 343.62 324.52 350.76 320.62 358.68 318.86 366.7 317.71 375.33 318.83 384.1 322.49" stroke-dasharray="7 7" transform="rotate(80.80000000000001, 400, 400)" opacity="0.81"></path><path d="M382.8 333.28C390.09 336.76 396.92 341.82 403.09 347.93 409.33 354.09 415.04 361.17 420.06 368.69 425.31 376.16 430.05 384.08 434.06 392.05 438.45 400 442.19 408.06 444.9 415.84 448.66 426.97 448.8 443.09 445.04 447.41 439.66 449.9 422.34 446.6 411.08 441.18 403.29 437.46 395.41 432.89 387.83 427.87 380.25 423.34 372.92 418.26 366.23 412.81 359.52 407.68 353.43 401.94 348.39 395.71 343.4 389.56 339.53 382.75 337.22 375.43 335.13 368.12 334.89 361.01 336.25 354.49 337.88 348.06 341.05 342.39 345.44 337.9 350.01 333.69 355.67 330.85 362.04 329.73 368.47 329.03 375.51 330.14 382.8 333.28" stroke-dasharray="6 2" transform="rotate(84.84, 400, 400)" opacity="0.85"></path><path d="M382.52 344.07C394.17 349.86 404.95 360.41 413.42 372.57 422.49 384.72 430.06 398.34 434.13 410.69 438.79 427.31 424.51 437.75 407.48 430.39 395.11 424.77 382.24 416.11 371.39 406.47 360.58 397.63 351.87 386.73 347.99 375.04 344.68 363.34 347.13 353.04 353.61 346.44 360.52 340.5 370.87 339.15 382.52 344.07" stroke-dasharray="11 0" transform="rotate(88.88, 400, 400)" opacity="0.89"></path><path d="M383.28 354.86C392.04 359.22 400.46 367.11 407.27 376.24 414.4 385.43 420.3 395.72 423.36 404.9 426.66 417.19 416.03 424.9 403.43 419.6 394.24 415.33 384.56 408.51 376.37 400.83 368.25 393.57 361.71 384.91 358.75 376.12 356.92 363.69 370.8 351.32 383.28 354.86" stroke-dasharray="1 7" transform="rotate(92.92, 400, 400)" opacity="0.92"></path><path d="M385.04 365.65C396.76 371.64 408.71 386.68 412.6 398.82 417.16 410.95 411.3 415.21 399.17 408.81 387.04 403.36 373.64 390.39 369.52 378.63 366.02 366.86 373.31 360.55 385.04 365.65" stroke-dasharray="6 10" transform="rotate(96.96, 400, 400)" opacity="0.96"></path></g></svg>