<?xml version="1.0" encoding="utf-8"?>
<!-- Generator: Adobe Illustrator 19.2.1, SVG Export Plug-In . SVG Version: 6.00 Build 0)  -->
<svg version="1.1" id="layer" xmlns="http://www.w3.org/2000/svg" xmlns:xlink="http://www.w3.org/1999/xlink" x="0px" y="0px"
	 viewBox="0 0 652 652" style="enable-background:new 0 0 652 652;" xml:space="preserve">
<style type="text/css">
	.st0{fill:#ED1C24;}
</style>
<g>
	<g>
		<g>
			<path d="M244.1,348.1h-5.8v-30.9H279c5.3,0,9.7-4.4,9.7-9.7s-4.4-9.7-9.7-9.7h-40.7v-5.7H279c8.5,0,15.5,6.9,15.5,15.5
				c0,8.5-6.9,15.4-15.5,15.4h-34.9V348.1z"/>
		</g>
		<path d="M614.3,320.2c3.9-2.8,6.4-7.4,6.4-12.6c0-8.5-6.9-15.5-15.4-15.5h-40.7v5.8h40.7c5.3,0,9.7,4.4,9.7,9.7
			c0,5.3-4.4,9.7-9.7,9.7h-40.7v30.9h5.8v-25.1h34.9c5.3,0,9.7,4.4,9.7,9.7v15.4h5.8v-15.4C620.8,327.6,618.2,322.9,614.3,320.2z"/>
		<g>
			<path d="M442.2,348.1h-40.7v-30.9h5.8v25.1h34.9c5.3,0,9.7-4.4,9.7-9.7v-25.1c0-5.3-4.4-9.7-9.7-9.7h-40.7v-5.7h40.7
				c8.5,0,15.4,6.9,15.4,15.5v25.1C457.7,341.2,450.6,348.1,442.2,348.1z"/>
		</g>
		<path d="M172.2,348.1c-8.5,0-15.5-6.9-15.5-15.4h5.8c0,5.3,4.4,9.7,9.7,9.7h25.1c5.3,0,9.7-4.4,9.7-9.7c0-5.3-4.4-9.7-9.7-9.7
			h-25.1c-8.5,0-15.5-6.9-15.5-15.5c0-8.5,6.9-15.5,15.5-15.5h25.1c8.5,0,15.5,6.9,15.5,15.5h-5.8c0-5.3-4.4-9.7-9.7-9.7h-25.1
			c-5.3,0-9.7,4.4-9.7,9.7s4.4,9.7,9.7,9.7h25.1c8.5,0,15.5,6.9,15.5,15.5c0,8.5-6.9,15.5-15.5,15.5h-25.1V348.1z"/>
		<path d="M370.2,292.1v15.4c0,5.3-4.4,9.7-9.7,9.7h-25.1c-5.3,0-9.7-4.4-9.7-9.7v-15.4h-5.8v15.4c0,8.5,6.9,15.5,15.5,15.5h9.7
			v25.3h5.8V323h9.7c8.5,0,15.5-6.9,15.5-15.5v-15.4H370.2z"/>
		<g>
			<rect x="484.7" y="292.1" class="st0" width="53.1" height="5.8"/>
			<polygon points="537.6,348.1 484.7,348.1 484.7,317.2 537.6,317.2 537.6,323 490.4,323 490.4,342.5 537.6,342.5 			"/>
		</g>
	</g>
	<g>
		<rect x="58.2" y="353.8" class="st0" width="22" height="28.3"/>
		<g>
			<g>
				<path d="M68.7,380c2,0,4.1-0.2,5.3-0.6c2.4-0.6,2.8-2.4,2.8-4.6c-0.2-2-2.2-2.2-3.8-3.1c-1.4-0.8-1.9-2-2-3.1
					c-0.3-2,0.6-3.8,1.9-5c1.4-1.4,2-2.4,2-3.5s-0.9-2.2-2.4-2.7c-2-0.5-3.6-0.5-3.6-0.5s-1.6,0-3.6,0.5c-1.6,0.5-2.4,1.6-2.4,2.7
					s0.6,2,2,3.5c1.3,1.3,2,3,1.9,5c-0.2,1.3-0.8,2.5-2,3.1c-1.6,0.8-3.8,1.1-3.8,3.1c-0.2,2.4,0.5,3.9,2.8,4.6
					C64.8,379.7,66.7,380,68.7,380 M68.7,328c2.2,0,3,1.4,3,1.4s0.8-5,2-7.9c1.3-2.8,2.4-3,2.4-3s0.5,0.9-0.5,3.6
					c-2.2,6.4-2,9.4-2,9.4s1.6-4.2,4.9-12.6c2.4-5.8,6-9.4,8-12.4c0.6-0.8,2-2.7,3.5-6.4c0.6-1.7,2.5-1.6,2.5-1.6s-1.1-2.5-0.8-6.1
					c0.3-3.6,1.4-5.5,2.4-11.6s-0.5-7.7-0.8-10.7c-0.3-2.8,1.1-3.6,1.1-7.1c0-3.6-3-12.2-3-12.2s-1.3-4.4-2.5-6.9
					c-1.3-2.5-0.3-6.8-3-11.1c-1.3-1.9-1.6-3.8-1.1-4.7c0.3-0.6,0.9-0.5,0.9-0.5s1.3,3.8,3.5,8.5c0.5,1.1,1.6,2.7,2.4,3.8
					c1.3,1.7,1.6,2.2,1.7,2.7c0,0.8-0.3,2.8,0.8,7.2c1.3,4.4,3.1,11.1,5.7,17c1.4,3.3-1.6,12.6-1.4,20.3c0.2,7.7,0.6,7.2,0.3,11.5
					c-0.2,2.2-2.5,3.6-2.5,3.6s0.6,1.6,0,3.1c-0.6,1.6-3.3,3.6-5,7.5c-1.7,4.1-2.4,6.3-4.1,8.5c-6.4,8.3-8.8,11.6-8.8,11.6
					s12.6-11.3,17.6-14.6c1.1-0.8,1.9-0.5,1.9-0.5s-0.6-2.5,4.1-8c2.8-3.3,4.4-11.5,5.2-14.9c0.9-4.1,3-6.1,3-6.1s2.5-13.7,2.7-14.9
					c0.6-4.2,0.8-6.6-0.9-10.5c-1.3-2.5-5.2-11.6-5.2-11.8c0,0,0.6-0.2,1.1,0c0.3,0.2,4.4,8.6,5,10.5c1.1,3.5,2.5,3,3,5.8
					c0.2,0.5,0.2,2.4-0.2,3.8c-0.6,2.8-1.1,4.2-1.7,10.5c-0.8,7.9,0.5,10.5,0,13.3s-2,3-2.4,5.2c-0.3,2-2.5,7.7-4.7,14.6
					c-1.3,3.9-5.2,5-5.2,5s0,1.9-0.9,2.8s-2,0.5-4.1,3c-2.4,2.8-3.6,5.3-7.4,7.9c-5.8,3.9-9,6-9,6s4.4-1.3,7.2-1.7
					c6-1.1,8.2,1.3,8.2,1.3s2.2,0,5,1.3s3.3,2.7,6.8,5c1.7,1.1,3.5,1.7,4.2,3.3c1.3,2.2,1.7,4.9,2,6.9c1.4,7.1,3,14.4,3,14.4
					c-0.3,0-0.9-0.3-1.3-0.6c-0.8-1.1-0.6-5-2.8-11c-2.5-6.8-4.4-7.1-4.4-7.1s-3,0-7.4-3.1c-3.3-2.4-4.7-4.2-4.7-4.2
					s-1.7,0.8-4.9,0.3c-6.4-0.9-9.9,1.1-9.9,1.1s3.6-0.9,10.4,3.1c3.9,2.4,6.6,5.5,6.1,7.2c1.1,0,2.2,1.4,3.9,4.7
					c1.7,3.1,2.5,8.8,3.6,13c0.9,3.9,2.7,5.7,3.1,8.5c0.5,3.6-1.6,6.3-3.3,14c-0.9,4.2-1.4,6.6-4.9,12.7c-2.5,4.6-4.4,7.1-6,7.5
					c0,0-0.3-0.6,0-1.3c0.2-0.3,2-2.4,5-9.3c2.5-5.7,3.1-8.2,4.6-15.7c0.3-2.2,0-3.5-0.8-4.2c-0.6-0.6-1.4-1.6-1.4-3.3
					c0.2-5-2.7-13-5.2-19.6c-1.3-3.3-4.2-4.2-4.9-5.3c-1.9-3.3-5.2-4.4-6.3-4.7c-3.1-0.9-4.9-0.5-4.9-0.5s8,4.1,8,18.2
					c0,14.1-11.5,21.8-19.8,21.8S49,385,49,370.9c0-14.1,8-18.2,8-18.2s-1.7-0.5-4.9,0.5c-1.1,0.3-4.4,1.4-6.3,4.7
					c-0.6,1.1-3.6,2-4.9,5.3c-2.5,6.4-5.3,14.6-5.2,19.6c0,1.7-0.8,2.7-1.4,3.3c-0.6,0.6-1.1,2-0.8,4.1c1.4,7.5,2,10.2,4.6,15.7
					c3,6.8,4.9,8.8,5,9.3c0.3,0.6,0,1.3,0,1.3c-1.6-0.5-3.5-3-6-7.5c-3.5-6.1-3.9-8.5-4.9-12.7c-1.7-7.7-3.8-10.4-3.3-14
					c0.5-2.8,2.2-4.6,3.1-8.5c1.1-4.2,1.9-9.9,3.6-13c1.7-3.3,2.8-4.6,3.9-4.7c-0.5-1.7,2.2-4.9,6.1-7.2c6.8-4.1,10.4-3.1,10.4-3.1
					s-3.6-2-9.9-1.1c-3.1,0.5-4.9-0.3-4.9-0.3s-1.4,1.7-4.7,4.2c-4.4,3.1-7.2,2.8-7.2,2.8s-1.9,0.3-4.4,7.1c-2.2,6-2.2,9.7-3,11
					c-0.2,0.3-0.8,0.8-1.3,0.6c0,0,1.7-7.4,3-14.4c0.3-2,0.8-4.7,2-6.9c0.8-1.4,2.5-2,4.2-3.1c3.5-2.2,3.9-3.8,6.8-5
					c2.8-1.3,5-1.3,5-1.3s2.2-2.4,8.2-1.3c2.8,0.5,7.2,1.7,7.2,1.7s-3.1-2-9-6c-3.8-2.5-5-5-7.4-7.9c-2-2.5-3.1-2-4.1-3
					s-0.9-2.8-0.9-2.8s-3.9-1.1-5.2-5c-2.2-6.9-4.4-12.6-4.7-14.6c0-2-1.6-2.2-2-5.2c-0.5-2.8,0.8-5.5,0-13.3
					c-0.6-6.3-1.1-7.5-1.7-10.5c-0.3-1.3-0.3-3.1-0.2-3.8c0.6-2.5,1.9-2.2,3-5.7c0.6-1.9,4.2-10,4.6-10.2c0.3-0.2,1.1,0,1.1,0
					c0,0.3-3.5,9.1-4.7,11.6c-1.7,3.8-1.6,6.1-0.9,10.5c0.2,1.3,2.7,14.9,2.7,14.9s2.2,2,3,6.1c0.8,3.5,2.4,11.6,5.2,14.9
					c4.7,5.5,4.1,8,4.1,8s0.8-0.3,1.9,0.5c5,3.1,17.6,14.6,17.6,14.6s-2.4-3.3-8.8-11.6c-1.7-2.2-2.4-4.6-4.1-8.5
					c-1.7-4.1-4.4-6-5-7.5c-0.6-1.6,0-3.1,0-3.1s-2.4-1.3-2.5-3.6c-0.3-4.2,0.2-3.8,0.3-11.5c0.2-7.7-2.8-17-1.4-20.3
					c2.5-5.8,4.4-12.4,5.7-17c1.3-4.6,0.8-6.4,0.8-7.2c0-0.5,0.5-0.9,1.7-2.7c0.8-0.9,1.9-2.5,2.4-3.8c2-4.7,3.5-8.5,3.5-8.5
					s0.6-0.2,0.9,0.5c0.3,0.9,0,2.8-1.1,4.7c-2.7,4.4-1.7,8.5-3,11.1c-1.3,2.5-2.5,6.9-2.5,6.9s-3.1,8.8-3.1,12.2
					c0,3.6,1.4,4.2,1.1,7.1c-0.3,2.8-1.7,4.6-0.8,10.7s2,8,2.4,11.6c0.3,3.6-0.8,6.1-0.8,6.1s1.9-0.2,2.5,1.6c1.4,3.8,3,5.7,3.5,6.4
					c2,3,5.7,6.6,8,12.4c3.5,8.3,4.9,12.6,4.9,12.6s0.2-3-2-9.4c-0.9-2.7-0.5-3.6-0.5-3.6s1.1,0.2,2.4,3c1.3,2.8,2,7.9,2,7.9
					S66.7,327.9,68.7,328"/>
			</g>
		</g>
	</g>
</g>
</svg>
